<?xml version="1.0" encoding="utf-8"?>
<!-- Generator: Adobe Illustrator 24.1.2, SVG Export Plug-In . SVG Version: 6.00 Build 0)  -->
<svg version="1.1" xmlns="http://www.w3.org/2000/svg" xmlns:xlink="http://www.w3.org/1999/xlink" x="0px" y="0px"
	 viewBox="0 0 500 411.5" style="enable-background:new 0 0 500 411.5;" xml:space="preserve">
<style type="text/css">
	.st0{fill:#FFFFFF;}
	.st1{fill:#DCEDF9;}
	.st2{fill:#0077EB;}
	.st3{fill:#0059D3;}
	.st4{fill:#008EFF;}
	.st5{fill:#FFAA01;}
	.st6{fill:#F88800;}
	.st7{fill:#FDCC50;}
	.st8{fill:#F9AF8B;}
	.st9{fill:#2E3052;}
	.st10{fill:#001030;}
	.st11{fill:#524E84;}
	.st12{fill:#1F2232;}
	.st13{fill:#FC8664;}
	.st14{fill:#FD664D;}
	.st15{fill:#000B29;}
</style>
<g id="BACKGROUND">
	<rect y="-48.8" class="st0" width="500" height="500"/>
</g>
<g id="OBJECTS">
	<g>
		<g>
			<path class="st1" d="M428.2,378.8c-22.7-17.3-61.6-60.1-10.4-127.3c63.3-83.2-12.5-117.3-85.1-113.7
				c-58.4,2.9-124.2-70.6-189.8-57.5c-87.1,17.4-30.5,92.4-89.6,132.8C2.9,247.5,24.5,352.5,90,378.8H428.2z"/>
		</g>
		<path class="st1" d="M469.2,226.3c-0.4-12.3-11.8-17.1-19.5-8.2c-4.4,5.1-8.6,12.5-9.4,22.3c-1.8,22,17.5,15.6,24.7,3.8
			C468.1,239.2,469.4,232.5,469.2,226.3z"/>
		<path class="st1" d="M257.6,75.9c-12.1-2.3-19.2,7.9-12.2,17.3c4.1,5.4,10.3,11.1,19.8,13.9c21.1,6.4,19-13.7,9-23.3
			C269.9,79.8,263.7,77.1,257.6,75.9z"/>
		<path class="st1" d="M57.2,188.9c4.9-11.3-3.6-20.5-14.3-15.6c-6.1,2.8-13,7.7-17.9,16.3c-10.8,19.2,9.3,21.5,20.8,13.8
			C50.8,200.1,54.8,194.6,57.2,188.9z"/>
	</g>
	<g>
		<ellipse class="st1" cx="250.4" cy="382.1" rx="207.8" ry="13.7"/>
	</g>
	<g>
		<g>
			<g>
				<g>
					<path class="st2" d="M452.5,269.9c-12.7,12.7,1.5,13.8-7.9,23.4c-8.5,8.8-21.1,0.2-20.2,21.6c0.2,4.7-3.2,8.1-8,9.9
						c-7.9,2.9-15.5,0.2-20.3-5.2c-0.4-0.4-0.8-0.9-1.1-1.4c-3.6-4.9-4.9-11.5-2.2-18.1c2.2-5.3,6-10.6,12.8-12.7
						c15.9-4.9,7.1-26,20.5-26.9c16.2-1.1,16.8-7.1,28.3-15.1C466.6,237.1,469.8,252.7,452.5,269.9z"/>
				</g>
				<g>
					<g>
						<path class="st3" d="M446.8,263c-0.4,0.4-29.9,30.8-50.7,56.7c-0.4-0.4-0.8-0.9-1.1-1.4c20.9-26,50.2-56.2,50.5-56.6
							c0.3-0.3,0.9-0.3,1.2,0C447.1,262.1,447.2,262.7,446.8,263z"/>
					</g>
				</g>
			</g>
			<g>
				<g>
					<path class="st4" d="M455.8,312.4c-19.9,11.7-2.6,17.6-17.3,26.6c-13.4,8.2-26.3-6.5-32.1,20.4c-1.3,5.9-6.6,9.1-13.1,9.8
						c-10.7,1.1-19.4-4.7-23.6-12.9c-0.3-0.7-0.6-1.3-0.9-2c-2.9-7.3-2.4-16,3.1-23.3c4.4-6,10.9-11.3,20-11.7
						c21.4-1,17.2-30.1,34.2-26.9c20.5,3.8,23.2-3.4,40.1-9.7C483.9,276,482.8,296.5,455.8,312.4z"/>
				</g>
				<g>
					<g>
						<path class="st2" d="M450.9,301.9c-0.6,0.3-47.1,28.7-81.3,54.3c-0.3-0.7-0.6-1.3-0.9-2c34.3-25.6,80.6-53.8,81.1-54.1
							c0.5-0.3,1.2-0.1,1.5,0.4C451.6,300.9,451.4,301.6,450.9,301.9z"/>
					</g>
				</g>
			</g>
		</g>
		<g>
			<g>
				<g>
					<path class="st2" d="M67.1,124.7c6.8,16.6-6.7,12.2-1.8,24.6c4.5,11.4,19.3,8.3,10.3,27.7c-2,4.2-0.2,8.8,3.6,12.2
						c6.1,5.7,14.3,6.2,20.7,3.1c0.5-0.3,1-0.5,1.5-0.8c5.2-3.1,9-8.8,9.1-15.9c0.1-5.8-1.4-12.1-6.9-16.6
						c-12.8-10.7,3.5-26.7-8.6-32.7c-14.5-7.3-12.8-13-20.3-24.8C66.8,88.9,57.9,102.1,67.1,124.7z"/>
				</g>
				<g>
					<g>
						<path class="st3" d="M75.1,120.5c0.2,0.5,15.7,39.9,24.9,71.9c0.5-0.3,1-0.5,1.5-0.8c-9.3-32-24.6-71.2-24.8-71.7
							c-0.2-0.4-0.7-0.7-1.1-0.5C75.1,119.5,74.9,120,75.1,120.5z"/>
					</g>
				</g>
			</g>
			<g>
				<g>
					<path class="st4" d="M47.7,168.1c14.4,18.1-3.9,17.4,6.7,31c9.6,12.4,26.9,3.3,22.7,30.5c-0.9,5.9,2.9,10.9,8.8,13.8
						c9.6,4.9,19.8,2.5,26.7-3.7c0.6-0.5,1.1-1,1.6-1.6c5.3-5.7,7.9-14,5.5-22.8c-2-7.1-6.1-14.4-14.5-18.1
						c-19.6-8.6-5.3-34.2-22.3-37.3c-20.6-3.8-20.4-11.4-34-23.3C34.4,124.1,28.1,143.6,47.7,168.1z"/>
				</g>
				<g>
					<g>
						<path class="st2" d="M55.9,160.1c0.4,0.5,33.7,43.6,56.6,79.8c0.6-0.5,1.1-1,1.6-1.6c-22.9-36.2-56-79-56.4-79.5
							c-0.4-0.5-1.1-0.6-1.5-0.2C55.7,158.9,55.6,159.6,55.9,160.1z"/>
					</g>
				</g>
			</g>
		</g>
		<g>
			<path class="st4" d="M144.9,152.4c5.8-4,20.4,5.8,28,17.8l-6.7-18.9c-2.4-2.1-6.7-5.1-13.4-7.5c-10.4-3.7-20.8-9.5-15-13.4
				c5.5-3.7,18.6,4.7,26.5,15.6l-8.7-24.3c-1.6-1.2-4.1-2.7-7.6-4c-6.6-2.3-13.1-6-9.4-8.5c3.2-2.2,10.5,2.2,15.5,8.3l-2.8-7.9
				c-1.3-2.3-3.1-5.6-6-8.5c-6.7-6.9-11.7-14.7-6.6-15.8c5.2-1.1,13.6,12.4,14.9,24.6l1.4,4c-1.1-8.9,2.1-19.7,6.5-20
				c4.4-0.4,1.7,6.6-1.9,12.5c-2.7,4.5-3.5,8.1-3.7,10l6.8,19.1c-1.7-14.1,3.3-31.1,10.4-31.7c7-0.6,2.6,10.5-3.1,19.9
				c-4.3,7.1-5.5,12.8-5.9,15.8l8.2,22.9c-1.5-13.9,3.5-30.8,10.5-30.9c5.4,0,3.7,7.5-2.7,18.2c-4.3,7.3-5.7,13.8-6.2,17.2l3.9,10.8
				c-0.6,0.5-1.3,0.7-2,0.7l-1.5-4.3c-2.2-2.1-6.7-5.7-14.4-8.4C149.5,162.1,139.1,156.4,144.9,152.4z"/>
		</g>
		<g>
			<path class="st4" d="M93.8,312.6c-6,3.7-2.7,21,5.2,32.7l-14.7-13.7c-1-3.1-2-8.2-1.5-15.3c0.8-11-0.4-22.9-6.4-19.1
				c-5.6,3.5-3.1,18.9,3.8,30.5l-18.8-17.6c-0.5-2-0.9-4.8-0.7-8.5c0.5-6.9-0.3-14.4-4-12c-3.3,2.1-2.2,10.5,1.5,17.6l-6.1-5.7
				c-1.6-2.1-3.9-5.1-5.4-8.9c-3.7-8.9-8.8-16.6-11.9-12.3c-3.1,4.3,6,17.4,16.7,23.5l3.1,2.9c-7.7-4.6-18.9-5.9-21-2
				c-2.1,3.9,5.4,4.1,12.3,3.2c5.2-0.7,8.8,0,10.6,0.6l14.8,13.9c-12.2-7.2-29.8-9.3-33.2-3.1c-3.3,6.2,8.6,6.6,19.5,5.1
				c8.3-1.1,13.9,0,16.8,0.9l17.8,16.6c-12.2-6.9-29.7-9-32.5-2.7c-2.2,4.9,5.4,6.4,17.8,4.8c8.4-1.1,14.9,0.2,18.2,1.2l8.4,7.8
				c0.7-0.4,1.2-0.9,1.4-1.5l-3.3-3.1c-1.1-2.8-2.5-8.4-2-16.6C100.9,320.7,99.8,308.9,93.8,312.6z"/>
		</g>
	</g>
	<g>
		<rect x="76.5" y="158.1" class="st5" width="318.1" height="219.7"/>
		<polygon class="st6" points="394.6,158.1 394.6,172.1 235.5,313.1 76.5,172.1 76.5,158.1 235.5,299.5 		"/>
		<g>
			<polygon class="st6" points="204.9,271.8 85.7,377.8 76.5,377.8 76.5,372.2 198,264.1 			"/>
		</g>
		<g>
			<g>
				<polygon class="st6" points="394.6,372.9 394.6,377.8 384.5,377.8 265.3,271.8 272.2,264.1 				"/>
			</g>
		</g>
		<polygon class="st7" points="76.5,158.1 235.5,299.5 394.6,158.1 		"/>
	</g>
	<g>
		<g>
			<g>
				<polygon class="st8" points="306.8,138.3 310.9,146.9 302.3,147.1 299,139.2 				"/>
				<g>
					<g>
						<g>
							<path class="st4" d="M308.2,146.4c0,0,1.8-2.4,3.2-2.3c1.4,0.1,12.2,8.7,15.9,9.4c3.7,0.7,3.4,4.5,1.8,4.5
								c-4.5,0-29.1,0-29.1,0s-0.7-8.8,0.2-11.4C301.1,144,305.3,147,308.2,146.4z"/>
						</g>
						<g>
							<g>
								<path class="st0" d="M314.2,152.4c-0.1,0-0.3,0-0.4,0c-0.2-0.1-0.3-0.5-0.2-0.7c0-0.1,1.2-2,2.7-2.8c2-1,3.6,0.1,3.7,0.2
									c0.2,0.2,0.3,0.5,0.1,0.7c-0.2,0.2-0.5,0.3-0.7,0.1c0,0-1.1-0.8-2.6-0.1c-1.2,0.6-2.3,2.4-2.3,2.4
									C314.4,152.3,314.3,152.4,314.2,152.4z"/>
							</g>
							<g>
								<path class="st0" d="M312.6,150.9c-0.1,0-0.3,0-0.4,0c-0.2-0.1-0.3-0.5-0.2-0.7c0-0.1,1.2-2,2.7-2.8c2-1,3.6,0.1,3.7,0.2
									c0.2,0.2,0.3,0.5,0.1,0.7c-0.2,0.2-0.5,0.3-0.7,0.1c0,0-1.1-0.8-2.6-0.1c-1.2,0.6-2.3,2.4-2.3,2.4
									C312.8,150.8,312.7,150.9,312.6,150.9z"/>
							</g>
							<g>
								<path class="st0" d="M316.2,153.6c-0.1,0-0.3,0-0.4,0c-0.2-0.1-0.3-0.5-0.2-0.7c0-0.1,1.2-2,2.7-2.8c2-1,3.6,0.1,3.7,0.2
									c0.2,0.2,0.3,0.5,0.1,0.7c-0.2,0.2-0.5,0.3-0.7,0.1c0,0-1.1-0.8-2.6-0.1c-1.2,0.6-2.3,2.4-2.3,2.4
									C316.5,153.5,316.4,153.5,316.2,153.6z"/>
							</g>
						</g>
					</g>
				</g>
			</g>
			<g>
				<g>
					<g>
						<g>
							<g>
								<path class="st9" d="M309.3,141.1l-3.8,1.2l-2.1,0.1l-3.6,0.2c-4.8-3.8-17.7-15.2-20.3-22c0,0-16.7,38.7-39.7,38.7
									c-1.5,0,2.5-19.3,6.2-23.3c0,0,21.2-39.6,35-35.4C287.1,102.7,293.4,111.7,309.3,141.1z"/>
							</g>
						</g>
					</g>
				</g>
				<g>
					<path class="st10" d="M305.5,142.3l-2.1,0.1c-14.1-10.7-20.7-19.8-23.7-25.6c-0.1-0.2-0.3-0.3-0.4-0.3c-0.1,0-0.2,0.1-0.2,0.2
						c-6.8,15.9-14.9,25.5-20.5,30.7c-6.1,5.7-10.6,7.6-10.8,7.6l-0.3-0.6l-0.3-0.6c0,0,4.5-1.9,10.4-7.4
						c5.5-5.1,13.5-14.5,20.1-30.2c0.3-0.6,0.8-1,1.4-1c0.7,0,1.3,0.4,1.6,1C283.9,122.1,290.7,131.4,305.5,142.3z"/>
				</g>
				<path class="st11" d="M295.9,140.1c0.6,1.1,1.6,2.7,2.6,3.5c0,0,8.1-0.4,12.1-2.4l-1.8-4.1C308.9,137.1,302.4,139.4,295.9,140.1
					z"/>
			</g>
		</g>
		<g>
			<g>
				<g>
					<path class="st2" d="M306.6,84.6c-11.6,4.7-20.8,7.1-28.7,8.1c0,0,0,0,0,0c-0.1,0-2,0.2-2.7,0.1c-2.1-0.1-5-0.6-7.9-1.9
						c-2.1-1-5-3.5-8.1-6.4c-3.8-3.7-7.9-8.1-10.7-11.3c-2.2-2.5-3.6-4.2-3.6-4.2c1.9-2.9,6.2-5.5,9.9-6.9c0,0,7.8,12.9,19.5,19.3
						c0.6,0.3,1.3,0.7,2,1c2.7-0.4,9.9-0.8,13.1-1c8.5-0.6,15.5-2.1,15.5-2.1L306.6,84.6z"/>
				</g>
			</g>
			<g>
				<g>
					<g>
						<path class="st8" d="M304.5,78.8c0,0,1.6-4.1,3.8-5.2c2.2-1.2,8.4-5.2,9.8-4c1.3,1.2,1.1,7.1-4.5,12c-3.6,3.1-7.1,3-7.1,3
							L304.5,78.8z"/>
					</g>
					<g>
						<g>
							<path class="st10" d="M318.5,73.3l-9.2,8.6c-0.3,0.3-1,0.4-1.4,0.2l-5.6-2.7c-0.2-0.1-0.3-0.2-0.3-0.3l0,0l-0.3-0.9l1.5-0.6
								l14.5-5.5l0.8-0.3l0.3,1l0,0.1c0,0,0,0,0,0C318.8,72.9,318.7,73.1,318.5,73.3z"/>
						</g>
						<g>
							<path class="st12" d="M317.6,71.9l-14.5,5.5l8.2-7.7c0.3-0.3,1-0.4,1.4-0.2L317.6,71.9z"/>
						</g>
						<g>
							<g>
								<path class="st9" d="M307.6,81.1l-5.6-2.7c-0.4-0.2-0.5-0.6-0.1-1l9.2-8.6c0.3-0.3,1-0.4,1.4-0.2l5.6,2.7
									c0.4,0.2,0.5,0.6,0.1,1l-9.2,8.6C308.7,81.2,308,81.3,307.6,81.1z"/>
							</g>
						</g>
						<g>
							<path class="st9" d="M308.3,79.6l-4.4-2.1c-0.4-0.2-0.5-0.6-0.1-1l7.2-6.7c0.3-0.3,1-0.4,1.4-0.2l4.4,2.1
								c0.4,0.2,0.5,0.6,0.1,1l-7.2,6.7C309.4,79.7,308.7,79.8,308.3,79.6z"/>
						</g>
						<g>
							<path class="st12" d="M318.7,72.7L318.7,72.7C318.7,72.7,318.7,72.7,318.7,72.7L318.7,72.7z"/>
						</g>
					</g>
					<g>
						<path class="st8" d="M308.2,71.5c0,0,1.3,0.2,1.4,1.3c0.1,1.1-1.1,0.7-1.9,0.4c-0.8-0.2-1.5,0-1.6,0.1
							C305.8,73.8,305.9,71.2,308.2,71.5z"/>
					</g>
					<g>
						<path class="st8" d="M314.1,77.6c0,0,2.1-3.4,3.6-5.2c1.1-1.2,1.6,0.6,0.9,1.8C317.8,75.4,316.4,78,314.1,77.6z"/>
					</g>
				</g>
			</g>
		</g>
		<g>
			<g>
				<g>
					<g>
						<g>
							<path class="st4" d="M218.2,138.6l-4.6-29.4l-0.3-1.7l0-1.3l1-41.6l11.6-3.9l0.6-0.2l2.6-0.9l2.1-0.7l12.2,1.7l2,0.3l0.7,0.1
								l8.7,1.2c0.1,27.6-2.6,33.6,2.5,56C259.9,126.5,250.5,156.5,218.2,138.6z"/>
						</g>
					</g>
				</g>
			</g>
			<g>
				<g>
					<path class="st2" d="M224.7,131.1C224.7,131.1,224.7,131.1,224.7,131.1c9.1-2.6,15.8-8.9,19.8-13.7c4.3-5.2,6.5-9.9,6.5-10
						c0.1-0.2,0-0.5-0.2-0.6c-0.2-0.1-0.5,0-0.6,0.2c0,0-2.2,4.7-6.4,9.8c-3.9,4.7-10.4,10.9-19.3,13.4c-0.2,0.1-0.4,0.3-0.3,0.6
						C224.2,131,224.4,131.1,224.7,131.1z"/>
				</g>
			</g>
			<g>
				<g>
					<path class="st2" d="M235.1,131.5c7.9-2.2,14.6-8.9,14.9-9.2c0.2-0.2,0.2-0.5,0-0.6c-0.2-0.2-0.5-0.2-0.6,0
						c-0.1,0.1-7.9,8-16.4,9.4c-0.3,0-0.4,0.3-0.4,0.5c0,0.2,0.3,0.4,0.5,0.4C233.7,131.9,234.4,131.7,235.1,131.5z"/>
				</g>
			</g>
			<g>
				<g>
					<path class="st2" d="M229.5,72.8c7.9-2.2,14.6-8.9,14.9-9.2c0.2-0.2,0.2-0.5,0-0.6c-0.2-0.2-0.5-0.2-0.6,0
						c-0.1,0.1-7.9,8-16.4,9.4c-0.3,0-0.4,0.3-0.4,0.5c0,0.2,0.3,0.4,0.5,0.4C228.1,73.2,228.8,73,229.5,72.8z"/>
				</g>
			</g>
		</g>
		<g>
			<g>
				<polygon class="st8" points="299.1,214.7 302.2,221.8 295.7,224.6 291.9,217.2 				"/>
				<g>
					<g>
						<g>
							<path class="st4" d="M300.8,221.6c0,0,0.7-2.9,2-3.3c1.3-0.5,14.7,3.1,18.3,2.3c3.7-0.8,4.1,2,4,3.5
								c-0.1,1.5-27.3,11.3-27.3,11.3s-4.2-7.6-4.3-10.3C293.4,222.2,298.4,223.3,300.8,221.6z"/>
						</g>
						<g>
							<g>
								<path class="st0" d="M308.7,224.7c-0.1,0.1-0.2,0.1-0.4,0.1c-0.3,0-0.5-0.3-0.5-0.6c0-0.1,0.3-2.3,1.4-3.7
									c1.4-1.7,3.3-1.3,3.4-1.3c0.3,0.1,0.5,0.3,0.4,0.6c-0.1,0.3-0.3,0.5-0.6,0.4c-0.1,0-1.4-0.3-2.4,1c-0.9,1.1-1.1,3.1-1.1,3.1
									C308.8,224.5,308.8,224.6,308.7,224.7z"/>
							</g>
							<g>
								<path class="st0" d="M306.7,224c-0.1,0.1-0.2,0.1-0.4,0.1c-0.3,0-0.5-0.3-0.5-0.6c0-0.1,0.3-2.3,1.4-3.7
									c1.4-1.7,3.3-1.3,3.4-1.3c0.3,0.1,0.5,0.3,0.4,0.6c-0.1,0.3-0.3,0.5-0.6,0.4c-0.1,0-1.4-0.3-2.4,1c-0.9,1.1-1.1,3.1-1.1,3.1
									C306.8,223.8,306.8,223.9,306.7,224z"/>
							</g>
							<g>
								<path class="st0" d="M311.1,225c-0.1,0.1-0.2,0.1-0.4,0.1c-0.3,0-0.5-0.3-0.5-0.6c0-0.1,0.3-2.3,1.4-3.7
									c1.4-1.7,3.3-1.3,3.4-1.3c0.3,0.1,0.5,0.3,0.4,0.6c-0.1,0.3-0.3,0.5-0.6,0.4c-0.1,0-1.4-0.3-2.4,1c-0.9,1.1-1.1,3.1-1.1,3.1
									C311.2,224.8,311.2,224.9,311.1,225z"/>
							</g>
						</g>
					</g>
				</g>
			</g>
			<g>
				<g>
					<g>
						<g>
							<g>
								<path class="st9" d="M300.7,216c-0.7,0.8-2.8,1.9-5.1,3c-0.4,0.2-0.8,0.4-1.3,0.5c-0.7,0.3-1.5,0.6-2.2,0.8
									c0,0-15.5-28.6-21.5-49.4c0,0-52.6-6.5-54.4-24.9c-0.1-0.6-0.1-1.2,0-1.9c0.2-1.8,0.8-3.6,1.9-5.6
									c1.2-2.1,19.2-0.1,28.9,2.7c0,0,26.4,10.3,36.1,20.9C288.2,167.5,300.7,216,300.7,216z"/>
							</g>
						</g>
					</g>
					<g>
						<path class="st10" d="M295.6,219c-0.4,0.2-0.8,0.4-1.3,0.5c-7.9-13-18.8-43.4-21.2-50.7c-0.2-0.5-0.6-0.9-1.1-1
							c-25.6-4.8-40.3-11.5-48.1-16.3c-3.5-2.1-5.9-4-7.7-5.6c-0.1-0.6-0.1-1.2,0-1.9c1.7,1.6,4.4,3.9,8.5,6.4
							c7.8,4.7,22.3,11.3,47.5,16c1,0.2,1.8,0.9,2.1,1.9C276.9,175.7,287.9,206.2,295.6,219z"/>
					</g>
				</g>
				<path class="st11" d="M289.4,217.4l2.5,4c0,0,6.2-1.1,10.4-5.3l-1.5-3.5C300.7,212.5,293.2,216.2,289.4,217.4z"/>
			</g>
		</g>
		<g>
			<path class="st8" d="M205.7,149.4c0,0,3.6,4.9,3.3,7.4s-3.5,7.2-6.1,7.5c-2.6,0.2,3-6.1,1.7-5.9c-1.6,0.2-12.3,9.1-14.6,9.1
				c-2.3,0,2.7-4.1,4.6-5.1c0,0-5.1,2.3-6.3,3.5c-1.2,1.2-2-1.4,3.9-4.9c0,0-5.4,3.1-5.8,3.1c-1.2,0.2,2.2-3.9,5.2-5.3
				c0,0-4.3,2.1-4.8,2.1c-0.6,0,0.7-1.4,3.9-3.2c2.9-1.6,7.7-9,7.7-9L205.7,149.4z"/>
			<g>
				<path class="st2" d="M214.4,64.5c0,0-12,23.1-14.8,47.3l-1.3,36.8c0,0,1.2,2.6,7.4,0.9l5.9-36.7l4.5-16.8
					C216.2,95.9,218.3,75.2,214.4,64.5z"/>
			</g>
		</g>
		<g>
			
				<ellipse transform="matrix(0.2837 -0.9589 0.9589 0.2837 135.0687 255.1084)" class="st9" cx="238.3" cy="37.1" rx="13.3" ry="13.3"/>
			<path class="st9" d="M251.6,37.1c0,0,3.9-0.4,4-4.1c0.1-3.1-3.8-1.8-3.1-4.1c0.7-2.3,1.8-4.4-1.2-5.5c-2.6-1-3,0.8-6.1-2.5
				c-3.6-3.9-8.2,2.9-12,2.4c-5.6-0.7-6.8,2.4-7.8,4.8c-1,2.4,0.8,4.5,0.8,4.5L251.6,37.1z"/>
			<g>
				<path class="st13" d="M248.6,42.7c0,0,2.6-2.4,3.7,0.2c1.1,2.6-2.2,8.9-5.7,6.6L248.6,42.7z"/>
				<g>
					<path class="st14" d="M247.7,47.6c0.1,0,0.3,0,0.3-0.2c1-2,3.3-2.4,3.3-2.5c0.2,0,0.3-0.2,0.3-0.4c0-0.2-0.2-0.3-0.4-0.3
						c-0.1,0-2.7,0.5-3.8,2.8C247.4,47.3,247.5,47.5,247.7,47.6C247.7,47.6,247.7,47.6,247.7,47.6z"/>
				</g>
				<g>
					<g>
						<path class="st14" d="M250.1,46.9c0.1,0,0.1,0,0.2,0c0.2-0.1,0.2-0.3,0.2-0.4c0,0-0.3-0.7-1-1.2c-0.1-0.1-0.3-0.1-0.5,0.1
							c-0.1,0.1-0.1,0.3,0.1,0.5c0.6,0.4,0.8,0.9,0.8,0.9C249.9,46.8,250,46.9,250.1,46.9z"/>
					</g>
				</g>
			</g>
			<path class="st8" d="M231.3,52.7l-1.2,6.7c0,0,2.2,3.5,4.9,4.2c2.7,0.7,4.9-2.2,4.9-2.2l1.1-6.5L231.3,52.7z"/>
			<path class="st13" d="M231.3,52.7l-0.5,3c1.5,2.3,4.6,3.4,9.5,3.6l0.8-4.3L231.3,52.7z"/>
			<path class="st8" d="M227.2,34.2c-0.3,2.6-0.7,5.9-0.6,8.6c0,0.7,0,1.3,0.1,1.9c0.5,5.2,2.6,14.3,13.1,12.5
				c4.7-0.8,7.5-5.3,9.3-10.1c1.2-3.3,1.9-6.6,2.3-9.1c0.4-2.5-0.6-5-2.5-6.6c-5.3-4.3-11.7-4.2-16-3.4
				C229.9,28.7,227.6,31.2,227.2,34.2z"/>
			<path class="st9" d="M243.4,42.7c-0.1,0.7,0.1,1.4,0.6,1.4c0.5,0.1,0.9-0.4,1.1-1.2c0.1-0.7-0.1-1.4-0.6-1.4
				C244,41.5,243.5,42,243.4,42.7z"/>
			<path class="st9" d="M233.7,41c-0.1,0.7,0.1,1.4,0.6,1.4c0.5,0.1,0.9-0.4,1.1-1.2c0.1-0.7-0.1-1.4-0.6-1.4
				C234.3,39.8,233.9,40.3,233.7,41z"/>
			<path class="st9" d="M247.6,39.4c0,0-3.2-2-6-1.3l0,1.3c0,0,3-0.1,5.6,1.4C247.5,40.2,247.8,40,247.6,39.4z"/>
			<path class="st9" d="M231.9,36.6c0,0,3.7-0.8,6.1,0.9l-0.4,1.2c0,0-2.8-1.1-5.7-0.6C231.8,37.4,231.6,37.1,231.9,36.6z"/>
			<g>
				<g>
					<path class="st13" d="M237.9,47c-0.5-0.1-1-0.4-1.1-0.4c-0.2-0.1-0.2-0.3-0.1-0.4c0.1-0.2,0.3-0.2,0.4-0.1
						c0.3,0.2,0.9,0.5,1.3,0.3c0.1,0,0.2-0.1,0.2-0.3c0.3-1.1,0.7-4.9,0.7-4.9c0-0.2,0.2-0.3,0.4-0.3c0.2,0,0.3,0.2,0.3,0.4
						c0,0.2-0.4,3.9-0.7,5c-0.1,0.4-0.4,0.6-0.6,0.7C238.4,47.1,238.2,47.1,237.9,47z"/>
				</g>
			</g>
			<path class="st0" d="M241.6,49.7c-0.5,1.3-1.8,3.5-4.7,3c-2.9-0.5-3.4-2.9-3.4-4.4L241.6,49.7z"/>
			<g>
				<path class="st13" d="M236.6,54.4c-0.8-0.1-1.5-0.7-1.5-0.7c-0.1-0.1-0.1-0.3,0-0.5c0.1-0.1,0.3-0.1,0.5,0c0,0,0.5,0.4,1.2,0.6
					c0.6,0.1,1.2-0.1,1.2-0.1c0.2-0.1,0.4,0,0.4,0.2c0.1,0.2,0,0.4-0.2,0.4C238.2,54.2,237.4,54.5,236.6,54.4z"/>
			</g>
			<path class="st9" d="M248.5,44.9c0.5-1.3,1-2.9,1-3.8c0-1.6-1.2-2.7-0.5-4.1c0.7-1.4-0.6-3.3-1.7-3.8c-1.1-0.5-3.9-0.4-6.4-2.1
				c-2.3-1.7-6.9-1.6-7.9-0.1c-1.2,1.8-0.1,2.2-2.8,3.9c-1.1,0.7-0.4,3.1-0.5,4.6c0,0.7-0.1,1-0.2,1.7l-0.1,0.4l-2.8-0.5
				c0.1-2.3,0.3-4.8,0.6-6.8c0.4-3,2.7-5.5,5.7-6.1c4.3-0.8,10.7-1,16,3.4c1.9,1.6,2.9,4.1,2.5,6.6c-0.3,1.9-0.8,4.5-1.6,7.1
				L248.5,44.9z"/>
			<g>
				<path class="st8" d="M227.7,42.5c0.1-0.7,0.2-1.5,0.2-2.3c0-1-0.1-2-1.1-2.6c-0.8-0.5-1.6-0.6-2.4,0.2c-1.9,2-1.5,9.4,2.6,8.5
					L227.7,42.5z"/>
				<g>
					<g>
						<path class="st13" d="M226.6,44.1c-0.1-0.1-0.2-0.2-0.2-0.3c0.2-2.2-1.5-3.8-1.5-3.8c-0.1-0.1-0.1-0.3,0-0.5
							c0.1-0.1,0.3-0.1,0.5,0c0.1,0.1,2,1.8,1.7,4.4C227,44,226.8,44.1,226.6,44.1C226.6,44.1,226.6,44.1,226.6,44.1z"/>
					</g>
				</g>
				<g>
					<path class="st13" d="M224.9,42.3c-0.1,0-0.1-0.1-0.1-0.1c-0.1-0.1-0.1-0.3,0.1-0.5c0,0,0.6-0.4,1.5-0.5c0.2,0,0.3,0.1,0.3,0.3
						c0,0.2-0.1,0.3-0.3,0.3c-0.7,0-1.1,0.3-1.1,0.3C225.1,42.3,225,42.3,224.9,42.3z"/>
				</g>
			</g>
		</g>
	</g>
	<g>
		<g>
			<path class="st8" d="M377.9,196.2c0,0-4.4,8.3-9.5,14.9c-1.5,1.9-3.1,3.7-4.7,5.1c-2.5,2.2-5,3.4-7,2.4
				c-7.5-3.7-24.1-33.1-24.1-33.1l4.1-4.8c0,0,7.4,8.4,12.8,13.4c5,4.6,8.8,8.1,8.8,8.1c0.7-1,1.4-2.2,2.2-3.4
				c0.8-1.3,1.7-2.6,2.5-4c6.2-10,13.8-21,13.8-21L377.9,196.2z"/>
			<path class="st8" d="M337.7,183.7c0,0,1.7-2.8,1-5.3c-0.7-2.5-1.3-8.1-4-8c-1,0.1,0.5,2.4-0.2,4.6c0,0-2.9-1.4-4.9-2.8
				c-1.7-1.3-5.3-3.3-6.9-4.3c-0.5-0.3-1,0.2-0.7,0.7c0.4,0.7,1.5,1.8,3.8,3.3c0,0-5.9-3.3-6.9-2.6c-1,0.7,6.5,4.8,6.5,4.8
				s-6.1-2.4-6.6-1.6c-0.3,0.5,5.6,4,5.6,4s-5.9-1.8-4.8-0.4c0.3,0.4,11.5,5.5,13.9,11.4C333.7,187.5,336.9,185.7,337.7,183.7z"/>
			<path class="st13" d="M368.4,211.1c-1.5,1.9-3.1,3.7-4.7,5.1l-3.2-17.3c0.8-1.3,1.7-2.6,2.5-4L368.4,211.1z"/>
			<g>
				<path class="st4" d="M377,173.2l-15.8,22.8l5,20.3l12.4-19.8C378.7,196.5,381,183.2,377,173.2z"/>
			</g>
		</g>
		<g>
			<polygon class="st8" points="385.1,368 385.1,375.2 391.9,375.1 392.3,367.5 			"/>
			<g>
				<path class="st9" d="M402.2,263c0,0.9-0.3,5-0.6,10.7c-0.9,15.7-2.7,43.6-3.8,49.9c-1.1,6.4-0.6,27.5-0.2,38.6
					c0.1,1.9-0.7,3.6-1.9,4.8c-0.5,0.5-1,0.9-1.6,1.2c-1,0.6-2.2,0.9-3.4,0.9h-5.1c-3.9,0-7-3.1-6.8-6.9c0.3-9.3,0.6-26.4,0-39.6
					c-0.6-12.5,0.3-34.7,1-48.5h0c0.3-5.5,0.5-9.7,0.6-11.4L402.2,263z"/>
			</g>
			<path class="st10" d="M380.4,262.7l21.8,0.3c0,0.9-0.3,5-0.6,10.7c-7.4,0.9-15.1,1.3-21.8,0.4C380,268.6,380.3,264.4,380.4,262.7
				z"/>
			<g>
				<path class="st10" d="M395.6,342.5c0.2,7.1,0.4,14.4,0.3,20.3c0,1.7-0.1,3.1-0.2,4.3c-0.5,0.5-1,0.9-1.6,1.2
					c0.1-1.4,0.2-3.2,0.3-5.5c0.1-5.9-0.1-13.1-0.3-20.2c-0.2-8.6-0.5-16.8,0-20.2c1-7.6,3.4-48.7,4-59.7l1.5,0.1
					c-0.6,11-3,52.1-4,59.8C395.1,325.8,395.3,333.9,395.6,342.5z"/>
			</g>
			<g>
				<g>
					<g>
						<g>
							<path class="st4" d="M386.9,375c0,0-1.4-1.9-2.5-1.9c-1.1,0.1-10.1,6.7-13.1,7.2c-3,0.5-2.5,2.7-2,3.8c0.5,1.1,24,0.1,24,0.1
								s0.8-6.8,0.1-8.9C392.6,373.2,389.2,375.5,386.9,375z"/>
						</g>
						<g>
							<g>
								<path class="st0" d="M381.9,379.6c0.1,0,0.2,0,0.3,0c0.2-0.1,0.3-0.4,0.2-0.6c0-0.1-0.9-1.6-2.1-2.3c-1.6-0.8-2.9,0-3,0.1
									c-0.2,0.1-0.2,0.4-0.1,0.6c0.1,0.2,0.4,0.2,0.6,0.1c0,0,0.9-0.6,2.1,0c1,0.5,1.8,1.9,1.8,1.9
									C381.7,379.5,381.8,379.6,381.9,379.6z"/>
							</g>
							<g>
								<path class="st0" d="M383.2,378.5c0.1,0,0.2,0,0.3,0c0.2-0.1,0.3-0.4,0.2-0.6c0-0.1-0.9-1.6-2.1-2.3c-1.6-0.8-2.9,0-3,0.1
									c-0.2,0.1-0.2,0.4-0.1,0.6c0.1,0.2,0.4,0.2,0.6,0.1c0,0,0.9-0.6,2.1,0c1,0.5,1.8,1.9,1.8,1.9
									C383,378.4,383.1,378.5,383.2,378.5z"/>
							</g>
							<g>
								<path class="st0" d="M380.2,380.5c0.1,0,0.2,0,0.3,0c0.2-0.1,0.3-0.4,0.2-0.6c0-0.1-0.9-1.6-2.1-2.3c-1.6-0.8-2.9,0-3,0.1
									c-0.2,0.1-0.2,0.4-0.1,0.6c0.1,0.2,0.4,0.2,0.6,0.1c0,0,0.9-0.6,2.1,0c1,0.5,1.8,1.9,1.8,1.9
									C380,380.4,380.1,380.5,380.2,380.5z"/>
							</g>
						</g>
					</g>
				</g>
			</g>
		</g>
		<g>
			<polygon class="st8" points="417.8,368 418.6,375.2 424.5,375.1 425,367.5 			"/>
			<g>
				<path class="st9" d="M430.2,322.6c-0.7,13.2-0.3,30.2,0,39.6c0.1,3.8-3,6.9-6.8,6.9h-5.1c-1.1,0-2.2-0.3-3.1-0.7
					c-0.6-0.3-1.1-0.7-1.5-1.1c-1.4-1.3-2.2-3.1-2.1-5.1c0.3-11,0.8-32.2-0.2-38.6c-1.1-6.4-2.9-35.2-3.8-50.7
					c-0.3-5.2-0.5-8.9-0.6-9.8l21.8,0.3c0.1,1.1,0.2,2.8,0.3,5C429.5,280.7,430.9,308.1,430.2,322.6z"/>
			</g>
			<path class="st10" d="M428.8,268.3c-4.1,1.1-12.3,3.1-21.5,4.6c-0.3-5.2-0.5-8.9-0.6-9.8l21.8,0.3
				C428.6,264.4,428.7,266.1,428.8,268.3z"/>
			<g>
				<path class="st10" d="M414.8,362.7c0.1,2.4,0.2,4.2,0.3,5.6c-0.6-0.3-1.1-0.7-1.6-1.1c-0.1-1.3-0.2-2.8-0.2-4.5
					c-0.1-5.9,0.1-13.2,0.3-20.3c0.2-8.6,0.4-16.6,0-20c-1.1-7.6-3.4-48.8-4-59.8l1.5-0.1c0.6,11,2.9,52.1,4,59.7
					c0.5,3.5,0.3,11.6,0,20.2C414.8,349.6,414.6,356.8,414.8,362.7z"/>
			</g>
			<g>
				<g>
					<path class="st4" d="M420.9,374.1c0,0,3.1-0.8,3.9-0.8c0.8,0,6.5,6.2,8.4,6.6c3.5,0.7,3.5,5.9,1.4,6.2
						c-6.1,0.8-16.5-1.8-16.5-1.8s-1-6.8-0.5-8.9C417.9,373.3,419.2,374.7,420.9,374.1z"/>
				</g>
				<g>
					<g>
						<path class="st0" d="M425.9,379.9c-0.1,0-0.2,0-0.3-0.1c-0.2-0.1-0.2-0.4-0.1-0.6c0-0.1,1.1-1.6,2.4-2.1
							c1.7-0.7,2.9,0.3,3,0.4c0.2,0.1,0.2,0.4,0,0.6c-0.2,0.2-0.4,0.2-0.6,0c0,0-0.9-0.7-2.1-0.2c-1,0.4-2,1.8-2,1.8
							C426.1,379.8,426,379.9,425.9,379.9z"/>
					</g>
					<g>
						<path class="st0" d="M424.8,378.6c-0.1,0-0.2,0-0.3-0.1c-0.2-0.1-0.2-0.4-0.1-0.6c0-0.1,1.1-1.6,2.4-2.1
							c1.7-0.7,2.9,0.3,3,0.4c0.2,0.1,0.2,0.4,0,0.6c-0.2,0.2-0.4,0.2-0.6,0c0,0-0.9-0.7-2.1-0.2c-1,0.4-2,1.8-2,1.8
							C425,378.6,424.9,378.6,424.8,378.6z"/>
					</g>
					<g>
						<path class="st0" d="M427.5,381c-0.1,0-0.2,0-0.3-0.1c-0.2-0.1-0.2-0.4-0.1-0.6c0-0.1,1.1-1.6,2.4-2.1c1.7-0.7,2.9,0.3,3,0.4
							c0.2,0.1,0.2,0.4,0,0.6c-0.2,0.2-0.4,0.2-0.6,0c0,0-0.9-0.7-2.1-0.2c-1,0.4-2,1.8-2,1.8C427.7,380.9,427.6,380.9,427.5,381z"
							/>
					</g>
				</g>
			</g>
		</g>
		<g>
			<g>
				<g>
					<path class="st4" d="M433.5,265.2c-19.7,4.9-39.4,4.9-59,0c-0.1-7.2-0.2-36,0.4-59.6c0-0.5,0-0.9,0-1.4c0-0.2,0-0.5,0-0.7v0
						c0-0.3,0-0.6,0-0.9c0.4-15.6,1.2-28.3,2.4-30c0,0,0,0,0,0c2.9-3.9,17.7-10.3,21.8-13.1c0.3,0.5,2.3,3.5,5,3.7
						c2.9,0.2,5.5-3.1,5.5-3.1v-0.6c4.1,2.8,17.5,8.7,20.4,12.6C433.1,176.5,433.6,252.9,433.5,265.2z"/>
				</g>
			</g>
			<g>
				<g>
					<path class="st2" d="M380.8,194.5c-1.7,2.2-4.2,7.3-5.3,9.7c-0.2,0.3-0.3,0.6-0.4,0.8c-0.1,0.3-0.2,0.4-0.2,0.4
						c0,0.1-0.1,0.1-0.2,0.2c0-0.5,0-0.9,0-1.4c0-0.2,0-0.5,0-0.7v0c0.2-0.5,0.5-1,0.8-1.7c1.3-2.6,3.1-6.1,4.4-7.9
						c0.1-0.2,0.4-0.2,0.6-0.1C380.9,194,381,194.3,380.8,194.5z"/>
				</g>
			</g>
			<g>
				<g>
					<path class="st2" d="M418.5,177.1C418.5,177.1,418.5,177.1,418.5,177.1c-7.8-0.2-13.9-3.4-17.6-6.1c-4-2.9-6.1-5.6-6.2-5.7
						c-0.2-0.2-0.1-0.5,0.1-0.6c0.2-0.1,0.5-0.1,0.6,0.1c0.1,0.1,8.5,11,23.1,11.4c0.3,0,0.4,0.2,0.4,0.5
						C419,176.9,418.8,177.1,418.5,177.1z"/>
				</g>
			</g>
			<g>
				<g>
					<path class="st2" d="M392.2,250.2c-0.2,0-0.4-0.2-0.5-0.4c0-0.2,0.2-0.5,0.4-0.5c12.8-0.8,20.5-7.2,24.7-12.4
						c4.5-5.7,6-11.2,6-11.3c0.1-0.2,0.3-0.4,0.6-0.3c0.2,0.1,0.4,0.3,0.3,0.5c-0.1,0.2-1.6,5.8-6.2,11.6
						C413.3,242.8,405.4,249.3,392.2,250.2C392.2,250.2,392.2,250.2,392.2,250.2z"/>
				</g>
			</g>
			<g>
				<g>
					<path class="st2" d="M399.1,242.2c-0.2,0-0.4-0.1-0.4-0.3c-0.1-0.2,0.1-0.5,0.3-0.5c11.2-3,13.3-12.1,13.3-12.2
						c0.1-0.2,0.3-0.4,0.5-0.3c0.2,0.1,0.4,0.3,0.3,0.5c0,0.1-0.6,2.5-2.6,5.3c-1.8,2.6-5.3,6-11.4,7.6
						C399.1,242.2,399.1,242.2,399.1,242.2z"/>
				</g>
			</g>
		</g>
		<g>
			<path class="st8" d="M448,264.4c-0.3,3.9-2.7,6.8-2.7,9.4c0,2.6-3,0.9-1.6-4.2c1.4-5.1-0.7-10-1.8-10c-1.1,0,0.4,5.7-0.8,7.6
				c-1.2,1.9-2.1-2.1-3.1-4.5c-1.1-2.5-0.5-7.8,0.5-11.6c1-3.7-3.8-27.3-3.1-34l-1.7-8.6l-1-5l-0.2-5.3l9.1-3.5
				c0.3,1.7,0.7,3.4,1,5.2c0.2,0.8,0.3,1.6,0.5,2.3c1.2,6.3,2.3,12.5,2.8,16.5c1.2,11-0.8,33.4-0.8,33.4S448.2,260.7,448,264.4z"/>
			<path class="st13" d="M443,202.3c-2.1,2.3-5.3,5.2-9.4,6.3l-1-5l-0.2-5.3l9.1-3.5c0.3,1.7,0.7,3.4,1,5.2
				C442.7,200.7,442.9,201.5,443,202.3z"/>
			<g>
				<path class="st4" d="M445.5,197.3c0,0-1.1,1.3-3,2.7c-2.3,1.7-5.8,3.6-10,3.6c-0.5-14.6-1.2-26.9-2.3-30.5
					C432.2,175.4,441.4,186.8,445.5,197.3z"/>
			</g>
		</g>
		<g>
			<g>
				<path class="st2" d="M426.3,193c1.7,2.2,4.2,7.3,5.3,9.7c0.2,0.3,0.3,0.6,0.4,0.8c0.1,0.3,0.2,0.4,0.2,0.4
					c0.1,0.2,0.2,0.3,0.4,0.3h0c0-0.2,0-0.5,0-0.7c0.1,0,0.3,0,0.4,0c-0.1-0.1-0.2-0.5-0.4-0.9c-0.3-0.6-0.6-1.4-1.1-2.2
					c-1.3-2.6-3.1-6.1-4.4-7.9c-0.2-0.2-0.4-0.2-0.6-0.1C426.2,192.6,426.2,192.9,426.3,193z"/>
			</g>
		</g>
		<g>
			<path class="st9" d="M418.1,136.2c0,7.9-5,13.3-13,13.3c-8.1,0-13.7-5.8-13.7-13.7s4.8-13.9,12.8-13.9
				C413.9,121.9,418.1,128.3,418.1,136.2z"/>
			<g>
				<path class="st13" d="M416.3,139.6c0,0,2.2-2.9,3.9-0.5c1.7,2.4-0.7,9.6-4.8,7.8L416.3,139.6z"/>
				<g>
					<g>
						<g>
							<path class="st14" d="M416.3,144.7c0.2,0,0.3-0.1,0.3-0.2c0.6-2.2,3-3.1,3-3.1c0.2-0.1,0.3-0.3,0.2-0.4
								c-0.1-0.2-0.3-0.3-0.4-0.2c-0.1,0-2.7,1-3.4,3.6C415.9,144.4,416,144.6,416.3,144.7C416.2,144.7,416.3,144.7,416.3,144.7z"/>
						</g>
					</g>
				</g>
				<g>
					<g>
						<g>
							<path class="st14" d="M418.6,143.5c0.1,0,0.1,0,0.2-0.1c0.2-0.1,0.2-0.3,0.1-0.5c0,0-0.4-0.6-1.3-1c-0.2-0.1-0.4,0-0.5,0.2
								c-0.1,0.2,0,0.4,0.2,0.4c0.7,0.3,1,0.8,1,0.8C418.4,143.5,418.5,143.5,418.6,143.5z"/>
						</g>
					</g>
				</g>
			</g>
			<g>
				<path class="st13" d="M393.2,139.6c0,0-2.2-2.9-3.9-0.5c-1.7,2.4,0.7,9.6,4.8,7.8L393.2,139.6z"/>
				<g>
					<path class="st14" d="M393.2,144.7c-0.2,0-0.3-0.1-0.3-0.2c-0.6-2.2-3-3.1-3-3.1c-0.2-0.1-0.3-0.3-0.2-0.4
						c0.1-0.2,0.3-0.3,0.4-0.2c0.1,0,2.7,1,3.4,3.6C393.6,144.4,393.5,144.6,393.2,144.7C393.2,144.7,393.2,144.7,393.2,144.7z"/>
				</g>
				<g>
					<g>
						<g>
							<path class="st14" d="M390.8,143.5c-0.1,0-0.1,0-0.2-0.1c-0.2-0.1-0.2-0.3-0.1-0.5c0,0,0.4-0.6,1.3-1c0.2-0.1,0.4,0,0.5,0.2
								c0.1,0.2,0,0.4-0.2,0.4c-0.7,0.3-1,0.8-1,0.8C391.1,143.5,390.9,143.5,390.8,143.5z"/>
						</g>
					</g>
				</g>
			</g>
			<path class="st8" d="M399.2,152.9v7.1c0,0,2.2,3.6,5.1,3.9c2.9,0.2,5.5-3.1,5.5-3.1v-7.3L399.2,152.9z"/>
			<path class="st13" d="M399.2,152.9v3.1c2,2.1,5.4,2.7,10.6,1.9v-4.6L399.2,152.9z"/>
			<path class="st8" d="M417.5,139.3c-0.1,1.5-0.3,3.1-0.6,4.7c-1,5.2-3.2,10.4-7.9,12c-10.7,3.7-14.5-5.2-16-10.5
				c-0.2-0.6-0.3-1.2-0.5-1.9c-0.2-1.2-0.4-2.6-0.6-4c-0.2-1.7-0.3-3.4-0.4-4.9c-0.2-3.2,1.8-6.1,4.8-7.2c4.4-1.6,11-3,17.3,0.5
				c2.3,1.3,3.8,3.7,3.8,6.3C417.6,135.7,417.6,137.5,417.5,139.3z"/>
			<path class="st9" d="M416.1,139.6c-0.4,0.6-2.4,6.7-2.9,7.5c-1.3-2.7-7.4-0.7-7.4-0.7c-0.4,0.1-0.8,0.2-1.2,0.2
				c-0.4,0-0.8-0.1-1.1-0.2l0,0c0,0-6.2-1.9-7.4,1c-0.6-0.8-2.3-6.8-2.6-7.8H392c0.1,1.4,0.3,2.8,0.6,4c0.1,0.7,0.3,1.3,0.5,1.9
				c1.5,5.2,5.3,14.2,16,10.5c4.7-1.7,6.9-6.8,7.9-12c0.3-1.6,0.5-3.2,0.6-4.7L416.1,139.6z M410.4,150.7L410.4,150.7
				C410.4,150.7,410.4,150.7,410.4,150.7c-0.5,0.4-1,0.8-1.4,1.1c-2.7,1.4-3,1.2-4.1,1.3c-1.1,0.1-2.6-0.3-4.1-1.1
				c-0.5-0.3-1.2-0.8-2-1.5c0,0-1.1-3.7,5.9-2.8C411.7,146.5,410.5,150,410.4,150.7z"/>
			<path class="st9" d="M409.3,140.5c0,0.8,0.4,1.4,0.9,1.4c0.5,0,0.9-0.6,0.9-1.4s-0.4-1.4-0.9-1.4
				C409.7,139.1,409.3,139.7,409.3,140.5z"/>
			<path class="st9" d="M398.8,140.5c0,0.8,0.4,1.4,0.9,1.4c0.5,0,0.9-0.6,0.9-1.4c0-0.8-0.4-1.4-0.9-1.4
				C399.2,139.1,398.8,139.7,398.8,140.5z"/>
			<path class="st9" d="M413.7,136.6c0,0-3.4-1.3-6-0.2l0.3,1.4c0,0,3.9-0.3,5.8,0.5C413.9,137.7,414,137.2,413.7,136.6z"/>
			<path class="st9" d="M396.8,136.6c0,0,3.4-1.3,6-0.2l-0.3,1.4c0,0-3.9-0.3-5.8,0.5C396.6,137.7,396.6,137.2,396.8,136.6z"/>
			<g>
				<path class="st13" d="M404.6,145.8c-0.6,0-1.2-0.2-1.2-0.3c-0.2-0.1-0.3-0.3-0.2-0.4c0.1-0.2,0.3-0.3,0.4-0.2
					c0.3,0.1,1.1,0.3,1.4,0.1c0.1,0,0.1-0.1,0.2-0.3c0.1-1.2-0.2-5.1-0.2-5.2c0-0.2,0.1-0.3,0.3-0.4c0.2,0,0.4,0.1,0.4,0.3
					c0,0.2,0.3,4,0.2,5.3c0,0.5-0.3,0.7-0.5,0.8C405.1,145.7,404.9,145.8,404.6,145.8z"/>
			</g>
			<path class="st0" d="M409.3,148.3c-0.3,1.4-1.2,3.9-4.4,3.9c-3.2,0-4-2.3-4.3-3.9H409.3z"/>
			<path class="st9" d="M392,139.6h1.6c-0.2-1.5-0.4-4.2,0.9-4.6c4.1-1.2-1.2-4,0.6-5.4c1.8-1.4,6.4-0.8,9.6-0.9
				c3.2-0.1,8.3-0.1,9.6,0.2c1.2,0.3,0.6,2.3,0.1,3.9c-0.5,1.6,1.5,3.3,1.9,4.9c0.1,0.5,0.1,1.2,0,1.9h1.3c0.2-2,0.2-3.8,0.1-5.3
				c-0.1-2.6-1.5-5-3.8-6.3c-6.3-3.5-12.9-2.2-17.3-0.5c-3,1.1-5,4.1-4.8,7.2C391.7,136.2,391.8,137.9,392,139.6z"/>
		</g>
	</g>
	<g>
		<g>
			<g>
				<g>
					<path class="st0" d="M163.3,312.3H84.1c1.3-7.9,7.6-13.7,15-13.7l24.6,0.1l24.6-0.1C155.7,298.6,162,304.4,163.3,312.3z"/>
				</g>
				<g>
					<rect x="90.3" y="311.2" class="st0" width="4.3" height="73.8"/>
					<rect x="152.7" y="311.2" class="st0" width="4.3" height="73.8"/>
					<rect x="94.7" y="331.9" class="st1" width="58.1" height="4.2"/>
				</g>
			</g>
			<g>
				<g>
					<path class="st2" d="M104.3,213c0,0-13.2,17.6-15,33c-1.2,10.9,15,27.1,15,27.1l5.6-2.8l-5.6-12.6c-2-6.1-4.4-8.5-2.6-14.7
						l4-8.7L104.3,213z"/>
				</g>
				<g>
					<path class="st2" d="M146,212.7c0,0,13,18.8,14.1,34.2c0.9,13.3-15,26.1-15,26.1l-4.6-2.3l6.4-12.7c2-6.1,2.9-9.8,0.2-16.5
						l-3.4-7.3L146,212.7z"/>
				</g>
				<g>
					<g>
						<path class="st4" d="M107,253.1L98.2,281c0,0,37.9,4.8,49.5,1.7l-5.9-30.4l4.1-39.6c-5.7-2.4-11.7-3.9-17.8-4.4
							c-9-0.6-14.6,0.8-23.8,4.6L107,253.1z"/>
					</g>
					<g>
						<g>
							<path class="st2" d="M116.5,221.4c8.4-1,16.2-6.7,16.5-7c0.2-0.2,0.2-0.4,0.1-0.7c-0.2-0.2-0.4-0.2-0.7-0.1
								c-0.1,0.1-9.3,6.8-18.1,6.9c-0.3,0-0.5,0.2-0.5,0.5c0,0.3,0.2,0.5,0.5,0.5C115.1,221.5,115.8,221.5,116.5,221.4z"/>
						</g>
					</g>
				</g>
				<g>
					<polygon class="st8" points="123.2,370.7 123.9,376.9 130.5,377 131,371.9 					"/>
					<g>
						<path class="st10" d="M122.2,273.1c0,0-17-0.9-22.7,3.8c-5.7,4.7-4.6,18.2,1.3,21.9c5.9,3.7,15.8,10.9,15.8,10.9l6.3,63.1
							l8.4,0.3c0,0,7.7-63.3,3.8-75.6C131.2,285.1,122.2,273.1,122.2,273.1z"/>
						<path class="st9" d="M132.1,369.9c0.5,1.5,0.2,2.9-0.2,4.3l-9.6-0.2c-0.3-1.4-0.4-2.8-0.2-4.2L132.1,369.9z"/>
					</g>
				</g>
				<g>
					<path class="st0" d="M146.2,272.7h-44.5l-4.1-24c-0.4-2.1,1.2-4,3.4-4h46c2.1,0,3.7,1.9,3.4,4L146.2,272.7z"/>
					<g>
						<path class="st1" d="M142.6,277.9h-37.3c-2,0-3.6-1.6-3.6-3.6v-1.6h44.5v1.6C146.2,276.3,144.6,277.9,142.6,277.9z"/>
					</g>
					<g>
						<path class="st1" d="M127.9,259.6c0,2.1-1.7,3.9-3.9,3.9c-2.1,0-3.9-1.7-3.9-3.9c0-2.1,1.7-3.9,3.9-3.9
							C126.2,255.8,127.9,257.5,127.9,259.6z"/>
					</g>
				</g>
				<g>
					<polygon class="st8" points="95.4,353.4 94,359.5 99.9,360.7 102.2,355.2 					"/>
					<g>
						<path class="st9" d="M130.8,272.1c0,0-11.4-3.9-18,4.3C106.2,284.6,95,354,95,354l7.6,3.2l24.6-61.6c0,0,20,11.4,22.4-4.8
							C151.6,277.9,130.8,272.1,130.8,272.1z"/>
						<path class="st11" d="M104.4,354c0,1.6-0.7,2.9-1.6,4.2l-9.4-3.3c0.1-1.5,0.5-2.9,1.2-4.2L104.4,354z"/>
					</g>
				</g>
				<g>
					<g>
						<path class="st4" d="M98.5,358.5c0,0-3.6-1.8-4.6-2c-1-0.2-9.7,5.9-12.2,5.9c-4.4-0.1-5.9,6.4-3.3,7.3
							c7.3,2.6,20.8,2.3,20.8,2.3s3-8.1,3.1-10.9C102.3,358.3,100.4,359.7,98.5,358.5z"/>
					</g>
					<g>
						<g>
							<path class="st0" d="M90.7,364.3c0.1,0.1,0.3,0.1,0.4,0c0.3-0.1,0.4-0.4,0.3-0.7c0-0.1-0.9-2.2-2.4-3.2
								c-1.9-1.3-3.7-0.4-3.8-0.4c-0.3,0.1-0.4,0.5-0.2,0.7c0.1,0.3,0.5,0.3,0.7,0.2c0,0,1.3-0.6,2.6,0.3c1.2,0.8,2,2.7,2,2.7
								C90.5,364.2,90.6,364.3,90.7,364.3z"/>
						</g>
						<g>
							<path class="st0" d="M92.5,363.1c0.1,0.1,0.3,0.1,0.4,0c0.3-0.1,0.4-0.4,0.3-0.7c0-0.1-0.9-2.2-2.4-3.2
								c-1.9-1.3-3.7-0.4-3.8-0.4c-0.3,0.1-0.4,0.5-0.2,0.7c0.1,0.3,0.5,0.3,0.7,0.2c0,0,1.3-0.6,2.6,0.3c1.2,0.8,2,2.7,2,2.7
								C92.2,362.9,92.3,363,92.5,363.1z"/>
						</g>
						<g>
							<path class="st0" d="M88.4,365.2c0.1,0.1,0.3,0.1,0.4,0c0.3-0.1,0.4-0.4,0.3-0.7c0-0.1-0.9-2.2-2.4-3.2
								c-1.9-1.3-3.7-0.4-3.8-0.4c-0.3,0.1-0.4,0.5-0.2,0.7c0.1,0.3,0.5,0.3,0.7,0.2c0,0,1.3-0.6,2.6,0.3c1.2,0.8,2,2.7,2,2.7
								C88.2,365,88.3,365.1,88.4,365.2z"/>
						</g>
					</g>
				</g>
				<g>
					<g>
						<path class="st4" d="M126.4,376.6c0,0,3.6-1.1,4.7-1.1c1,0,8.1,7.2,10.4,7.5c4.2,0.6,4.4,7,1.9,7.4c-7.3,1.2-20-1.3-20-1.3
							s-1.5-8.1-1.1-10.7C122.9,375.8,124.4,377.5,126.4,376.6z"/>
					</g>
					<g>
						<g>
							<path class="st0" d="M132.8,383.4c-0.1,0-0.3,0-0.4-0.1c-0.2-0.1-0.3-0.5-0.2-0.7c0-0.1,1.2-1.9,2.7-2.6
								c2-0.9,3.5,0.2,3.6,0.3c0.2,0.2,0.3,0.5,0.1,0.7c-0.2,0.2-0.5,0.3-0.7,0.1c0,0-1.1-0.8-2.5-0.2c-1.2,0.6-2.3,2.2-2.3,2.2
								C133,383.3,132.9,383.3,132.8,383.4z"/>
						</g>
						<g>
							<path class="st0" d="M131.3,381.9c-0.1,0-0.3,0-0.4-0.1c-0.2-0.1-0.3-0.5-0.2-0.7c0-0.1,1.2-1.9,2.7-2.6
								c2-0.9,3.5,0.2,3.6,0.3c0.2,0.2,0.3,0.5,0.1,0.7c-0.2,0.2-0.5,0.3-0.7,0.1c0,0-1.1-0.8-2.5-0.2c-1.2,0.6-2.3,2.2-2.3,2.2
								C131.6,381.8,131.4,381.9,131.3,381.9z"/>
						</g>
						<g>
							<path class="st0" d="M134.8,384.6c-0.1,0-0.3,0-0.4-0.1c-0.2-0.1-0.3-0.5-0.2-0.7c0-0.1,1.2-1.9,2.7-2.6
								c2-0.9,3.5,0.2,3.6,0.3c0.2,0.2,0.3,0.5,0.1,0.7c-0.2,0.2-0.5,0.3-0.7,0.1c0,0-1.1-0.8-2.5-0.2c-1.2,0.6-2.3,2.2-2.3,2.2
								C135,384.5,134.9,384.5,134.8,384.6z"/>
						</g>
					</g>
				</g>
				<g>
					<path class="st9" d="M136.3,173.2c0,0,5.4,8.4,4.8,17.1c-0.6,8.7,0.8,18.8-7,18.3c-7.8-0.4-21.7,3.1-26.1-3.7
						C103.6,198.1,136.3,173.2,136.3,173.2z"/>
					<path class="st15" d="M138.3,188.6c0,0,1.4,12.6-4.6,16.1c-6,3.5-10.3-0.4-10.3-0.4S136.1,186.7,138.3,188.6z"/>
					<g>
						<g>
							<path class="st13" d="M113.5,188.5c0,0-2.1-2.9-3.7-0.5s0.7,9.4,4.6,7.7L113.5,188.5z"/>
							<g>
								<path class="st14" d="M113.4,193.5c-0.1,0-0.3-0.1-0.3-0.2c-0.6-2.2-2.8-3-2.9-3c-0.2-0.1-0.3-0.3-0.2-0.4
									c0.1-0.2,0.3-0.3,0.4-0.2c0.1,0,2.6,1,3.3,3.5C113.8,193.3,113.7,193.4,113.4,193.5C113.5,193.5,113.5,193.5,113.4,193.5z"
									/>
							</g>
							<g>
								<path class="st14" d="M111.2,192.4c-0.1,0-0.1,0-0.2-0.1c-0.2-0.1-0.2-0.3-0.1-0.5c0,0,0.4-0.6,1.2-1c0.2-0.1,0.4,0,0.4,0.2
									c0.1,0.2,0,0.4-0.2,0.4c-0.6,0.3-1,0.8-1,0.8C111.4,192.4,111.3,192.4,111.2,192.4z"/>
							</g>
						</g>
						<g>
							<path class="st13" d="M135.6,188.5c0,0,2.1-2.9,3.7-0.5c1.6,2.4-0.7,9.4-4.6,7.7L135.6,188.5z"/>
							<g>
								<path class="st14" d="M135.7,193.5c0.1,0,0.3-0.1,0.3-0.2c0.6-2.2,2.8-3,2.9-3c0.2-0.1,0.3-0.3,0.2-0.4
									c-0.1-0.2-0.3-0.3-0.4-0.2c-0.1,0-2.6,1-3.3,3.5C135.3,193.3,135.4,193.4,135.7,193.5C135.6,193.5,135.6,193.5,135.7,193.5z
									"/>
							</g>
							<g>
								<path class="st14" d="M137.9,192.4c0.1,0,0.1,0,0.2-0.1c0.2-0.1,0.2-0.3,0.1-0.5c0,0-0.4-0.6-1.2-1c-0.2-0.1-0.4,0-0.4,0.2
									c-0.1,0.2,0,0.4,0.2,0.4c0.6,0.3,1,0.8,1,0.8C137.7,192.4,137.8,192.4,137.9,192.4z"/>
							</g>
						</g>
						<path class="st8" d="M129.8,201.6v7c0,0-2.1,3.5-4.9,3.8c-2.8,0.2-5.3-3.1-5.3-3.1v-7.2L129.8,201.6z"/>
						<path class="st13" d="M129.8,201.6v3.1c-1.9,2.1-5.2,2.8-10.2,2.1l0-4.7L129.8,201.6z"/>
						<path class="st8" d="M137.2,183.7c-0.1,2.7-0.4,6.1-0.9,8.8c-0.1,0.7-0.3,1.3-0.4,1.9c-1.5,5.1-5.1,13.9-15.4,10.3
							c-4.5-1.6-6.6-6.7-7.6-11.8c-0.6-3.5-0.7-7-0.7-9.5c0-2.6,1.5-4.9,3.7-6.2c6.1-3.4,12.4-2.2,16.7-0.5
							C135.5,177.7,137.3,180.6,137.2,183.7z"/>
						<path class="st9" d="M120,189.6c0,0.7-0.4,1.3-0.9,1.3c-0.5,0-0.9-0.6-0.9-1.3c0-0.7,0.4-1.3,0.9-1.3
							C119.7,188.2,120,188.8,120,189.6z"/>
						<path class="st9" d="M130.6,189.6c0,0.7-0.4,1.3-0.9,1.3c-0.5,0-0.9-0.6-0.9-1.3c0-0.7,0.4-1.3,0.9-1.3
							C130.2,188.2,130.6,188.8,130.6,189.6z"/>
						<path class="st9" d="M117.5,185.1c0.7-0.2,2.1-0.5,3.7-0.5c0.4,0,0.7,0.4,0.6,0.7l0,0c-0.1,0.3-0.3,0.5-0.7,0.5
							c-1,0-3.7,0.1-5,0.6c0-0.2,0.1-0.5,0.3-0.7C116.7,185.4,117.1,185.2,117.5,185.1z"/>
						<path class="st9" d="M131.3,185.1c-0.7-0.2-2.1-0.5-3.7-0.5c-0.4,0-0.7,0.4-0.6,0.7l0,0c0.1,0.3,0.3,0.5,0.7,0.5
							c1,0,3.7,0.1,5,0.6c0-0.2-0.1-0.5-0.3-0.7C132.1,185.5,131.7,185.2,131.3,185.1z"/>
						<g>
							<path class="st13" d="M124.7,195.1c-0.3,0-0.5,0-0.7-0.2c-0.2-0.1-0.4-0.3-0.5-0.8c-0.1-1.2,0.2-5,0.2-5.2
								c0-0.2,0.2-0.3,0.4-0.3c0.2,0,0.3,0.2,0.3,0.4c0,0-0.3,3.9-0.2,5.1c0,0.2,0.1,0.3,0.2,0.3c0.3,0.2,1,0,1.3-0.1
								c0.2-0.1,0.4,0,0.4,0.2c0.1,0.2,0,0.4-0.2,0.4C125.8,194.8,125.2,195.1,124.7,195.1z"/>
						</g>
						<path class="st0" d="M120.5,197.1c0.3,1.3,1.1,3.6,3.9,3.6c2.8,0,3.6-2.1,3.9-3.6H120.5z"/>
						<g>
							<path class="st13" d="M124.3,202.6c-0.8,0-1.5-0.4-1.6-0.5c-0.2-0.1-0.2-0.3-0.1-0.5c0.1-0.2,0.3-0.2,0.5-0.1l0,0
								c0,0,0.6,0.4,1.2,0.4c0.7,0,1.3-0.4,1.3-0.4c0.2-0.1,0.4,0,0.5,0.1c0.1,0.2,0,0.4-0.1,0.5
								C125.9,202.2,125.2,202.6,124.3,202.6z"/>
						</g>
					</g>
					<path class="st9" d="M138.5,183.2c-0.1,0.3-0.4,0.5-0.8,0.6c0,0.7,0,1.6-0.1,2.4c-0.4,4.8-1.6,5.6-1.9,4.4
						c-0.2-0.8-0.2-5.3-0.1-6.8c-0.9-0.1-1.8-0.2-1.8-0.2l-1.1-4.6l-0.4,4.6c-1.7,0.6-5.5-0.3-5.5-0.3l-1.3-4.6l-0.8,4.4
						c-2.5,1.2-5.6,0.4-5.6,0.4l-0.7-4.7l-1.7,4.7c0,0-5.3,1.9-5.4,0c0-1.1,0.8-4.2,1.5-6.7c0.7-2.6,2.5-4.9,4.8-6.1
						c6.6-3.5,13.6-1.7,16-0.2C138.7,173.5,138.5,183.2,138.5,183.2z"/>
					<path class="st9" d="M114.3,173.6c0,0-4.4,5.2-5.8,14.5c-1.4,9.3-3.4,16.2,2.2,19.3c6.1,3.3,5.5-3.5,5.5-5.3
						c-0.1-1.9-5.3-6.9-1.8-21.2C115.4,176.2,114.3,173.6,114.3,173.6z"/>
					<path class="st15" d="M113.3,192.8C113.3,192.8,113.3,192.8,113.3,192.8c0,0.1,0,0.5,0,1c0,0.4,0,0.8,0.1,1.3
						c0.2,3.1,0.8,8.6,2.6,10.4c0.7,0.7,2.1,1.1,3.7,1.3v-2.5c-1.7-0.8-3-2.1-4-3.7c-0.6-1.4-1.7-3.5-2.2-6.9L113.3,192.8z"/>
					<path class="st0" d="M137.3,195.8c0,0.4-0.3,0.8-0.8,0.8c-0.4,0-0.8-0.3-0.8-0.8c0-0.4,0.3-0.8,0.8-0.8
						C136.9,195.1,137.3,195.4,137.3,195.8z"/>
				</g>
			</g>
		</g>
	</g>
	<g>
		<g>
			<g>
				<g>
					<path class="st5" d="M370.7,129.1h-19c-1.5,0-2.6-1.2-2.6-2.6v-19c0-1.5,1.2-2.6,2.6-2.6h19c1.5,0,2.6,1.2,2.6,2.6v19
						C373.4,127.9,372.2,129.1,370.7,129.1z"/>
				</g>
			</g>
			<g>
				<path class="st7" d="M369.5,117c0,2-0.7,3.8-1.9,5.3c-1.5,1.8-3.8,3-6.4,3c-2.6,0-4.9-1.2-6.4-3c-1.2-1.4-1.9-3.3-1.9-5.3
					c0-4.6,3.7-8.3,8.3-8.3C365.8,108.7,369.5,112.4,369.5,117z"/>
				<path class="st0" d="M367.6,122.2c-1.5,1.8-3.8,3-6.4,3c-2.6,0-4.9-1.2-6.4-3l0.1-0.2c0.2-0.4,0.4-0.7,0.7-0.9
					c0.3-0.3,0.6-0.4,1-0.6c1.3-0.4,2.6-0.8,3.3-2c-0.9-0.4-1.4-1.2-1.7-1.8c-0.9,0.2-1.6-1.5-1.1-2c0.2-0.2,0.4-0.2,0.6-0.2
					c0.2-1.8,1.6-3.3,3.4-3.3c1.8,0,3.3,1.6,3.4,3.3c0.2,0,0.4,0,0.6,0.2c0.5,0.5-0.2,2.2-1.1,2c-0.2,0.6-0.9,1.4-1.5,1.7
					c0.7,1.2,1.8,1.7,3.2,2.1c0.4,0.1,0.7,0.3,1,0.6c0.3,0.3,0.5,0.6,0.7,0.9L367.6,122.2z"/>
			</g>
		</g>
		<g>
			<g>
				<g>
					<path class="st5" d="M55.1,258.3h-19c-1.5,0-2.6-1.2-2.6-2.6v-19c0-1.5,1.2-2.6,2.6-2.6h19c1.5,0,2.6,1.2,2.6,2.6v19
						C57.8,257.1,56.6,258.3,55.1,258.3z"/>
				</g>
			</g>
			<path class="st0" d="M46,238.1c-3.1-0.2-5.7,2.3-5.7,5.3c0,1,0.3,1.9,0.7,2.7c0.7,1.2,1.4,2.4,2.1,3.6l2.5,4.5l3.8-6.9
				c0.2-0.4,0.5-0.8,0.7-1.2c0.5-0.8,0.8-1.8,0.7-2.8C50.9,240.5,48.7,238.2,46,238.1z M45.6,245c-1.2,0-2.2-1-2.2-2.2
				c0-1.2,1-2.2,2.2-2.2c1.2,0,2.2,1,2.2,2.2C47.9,244,46.9,245,45.6,245z"/>
		</g>
		<g>
			<g>
				<g>
					<g>
						<path class="st4" d="M454.3,137.1c3,0,5.4,2.4,5.4,5.4c0,3-2.4,5.4-5.4,5.4c-3,0-5.4-2.4-5.4-5.4
							C448.8,139.5,451.3,137.1,454.3,137.1z M454.3,146.2c2.1,0,3.7-1.7,3.7-3.7s-1.7-3.7-3.7-3.7c-2.1,0-3.7,1.7-3.7,3.7
							S452.2,146.2,454.3,146.2z"/>
					</g>
				</g>
			</g>
			<g>
				<path class="st5" d="M434.7,118.1c3,0,5.4,2.4,5.4,5.4c0,3-2.4,5.4-5.4,5.4c-3,0-5.4-2.4-5.4-5.4
					C429.3,120.5,431.8,118.1,434.7,118.1z M434.7,127.2c2.1,0,3.7-1.7,3.7-3.7c0-2.1-1.7-3.7-3.7-3.7c-2.1,0-3.7,1.7-3.7,3.7
					C431,125.5,432.7,127.2,434.7,127.2z"/>
			</g>
			<g>
				<g>
					<g>
						<g>
							<path class="st4" d="M428,100.5c0.5,0,0.9,0.4,0.9,0.9v3.8c0,0.5-0.4,0.9-0.9,0.9c-0.5,0-0.9-0.4-0.9-0.9v-3.8
								C427.2,100.8,427.6,100.5,428,100.5z"/>
						</g>
					</g>
					<g>
						<g>
							<path class="st4" d="M428,93.9c0.5,0,0.9,0.4,0.9,0.9v3.8c0,0.5-0.4,0.9-0.9,0.9c-0.5,0-0.9-0.4-0.9-0.9v-3.8
								C427.2,94.3,427.6,93.9,428,93.9z"/>
						</g>
					</g>
				</g>
				<g>
					<g>
						<g>
							<path class="st4" d="M422.8,99h3.4c0.5,0,0.9,0.4,0.9,0.9c0,0.5-0.4,0.9-0.9,0.9h-3.4c-0.5,0-0.9-0.4-0.9-0.9
								C421.9,99.4,422.3,99,422.8,99z"/>
						</g>
					</g>
					<g>
						<g>
							<path class="st4" d="M429.9,99h3.4c0.5,0,0.9,0.4,0.9,0.9c0,0.5-0.4,0.9-0.9,0.9h-3.4c-0.5,0-0.9-0.4-0.9-0.9
								C429.1,99.4,429.5,99,429.9,99z"/>
						</g>
					</g>
				</g>
			</g>
			<g>
				<g>
					<g>
						<g>
							<g>
								<path class="st5" d="M458,121.5c0.5,0,0.9,0.4,0.9,0.9v3.8c0,0.5-0.4,0.9-0.9,0.9c-0.5,0-0.9-0.4-0.9-0.9v-3.8
									C457.1,121.9,457.5,121.5,458,121.5z"/>
							</g>
						</g>
						<g>
							<g>
								<path class="st5" d="M458,114.9c0.5,0,0.9,0.4,0.9,0.9v3.8c0,0.5-0.4,0.9-0.9,0.9c-0.5,0-0.9-0.4-0.9-0.9v-3.8
									C457.1,115.3,457.5,114.9,458,114.9z"/>
							</g>
						</g>
					</g>
					<g>
						<g>
							<g>
								<path class="st5" d="M452.7,120.1h3.4c0.5,0,0.9,0.4,0.9,0.9c0,0.5-0.4,0.9-0.9,0.9h-3.4c-0.5,0-0.9-0.4-0.9-0.9
									C451.9,120.4,452.3,120.1,452.7,120.1z"/>
							</g>
						</g>
						<g>
							<g>
								<path class="st5" d="M459.9,120.1h3.4c0.5,0,0.9,0.4,0.9,0.9c0,0.5-0.4,0.9-0.9,0.9h-3.4c-0.5,0-0.9-0.4-0.9-0.9
									C459,120.4,459.4,120.1,459.9,120.1z"/>
							</g>
						</g>
					</g>
				</g>
			</g>
		</g>
		<g>
			<g>
				<g>
					<g>
						<path class="st4" d="M118.5,67.9c3,0,5.4,2.4,5.4,5.4s-2.4,5.4-5.4,5.4c-3,0-5.4-2.4-5.4-5.4S115.5,67.9,118.5,67.9z
							 M118.5,69.6c-2.1,0-3.7,1.7-3.7,3.7c0,2.1,1.7,3.7,3.7,3.7c2.1,0,3.7-1.7,3.7-3.7C122.2,71.2,120.5,69.6,118.5,69.6z"/>
					</g>
				</g>
			</g>
			<g>
				<g>
					<g>
						<g>
							<path class="st5" d="M98.7,49.9c3,0,5.4,2.4,5.4,5.4c0,3-2.4,5.4-5.4,5.4c-3,0-5.4-2.4-5.4-5.4
								C93.3,52.4,95.7,49.9,98.7,49.9z M98.7,51.6c-2.1,0-3.7,1.7-3.7,3.7c0,2.1,1.7,3.7,3.7,3.7c2.1,0,3.7-1.7,3.7-3.7
								C102.4,53.3,100.8,51.6,98.7,51.6z"/>
						</g>
					</g>
				</g>
			</g>
			<g>
				<g>
					<g>
						<g>
							<path class="st4" d="M91.6,80.9c0,0.5,0.4,0.9,0.9,0.9h3.8c0.5,0,0.9-0.4,0.9-0.9c0-0.5-0.4-0.9-0.9-0.9h-3.8
								C91.9,80.1,91.6,80.5,91.6,80.9z"/>
						</g>
					</g>
					<g>
						<g>
							<path class="st4" d="M85,80.9c0,0.5,0.4,0.9,0.9,0.9h3.8c0.5,0,0.9-0.4,0.9-0.9c0-0.5-0.4-0.9-0.9-0.9h-3.8
								C85.4,80.1,85,80.5,85,80.9z"/>
						</g>
					</g>
				</g>
				<g>
					<g>
						<g>
							<path class="st4" d="M90.1,75.7V79c0,0.5,0.4,0.9,0.9,0.9c0.5,0,0.9-0.4,0.9-0.9v-3.4c0-0.5-0.4-0.9-0.9-0.9
								C90.5,74.8,90.1,75.2,90.1,75.7z"/>
						</g>
					</g>
					<g>
						<g>
							<path class="st4" d="M90.1,82.8v3.4c0,0.5,0.4,0.9,0.9,0.9c0.5,0,0.9-0.4,0.9-0.9v-3.4c0-0.5-0.4-0.9-0.9-0.9
								C90.5,82,90.1,82.4,90.1,82.8z"/>
						</g>
					</g>
				</g>
			</g>
			<g>
				<g>
					<g>
						<g>
							<g>
								<path class="st5" d="M131.3,51.6c0,0.5,0.4,0.9,0.9,0.9h3.8c0.5,0,0.9-0.4,0.9-0.9c0-0.5-0.4-0.9-0.9-0.9h-3.8
									C131.7,50.8,131.3,51.2,131.3,51.6z"/>
							</g>
						</g>
						<g>
							<g>
								<g>
									<path class="st5" d="M124.7,51.6c0,0.5,0.4,0.9,0.9,0.9h3.8c0.5,0,0.9-0.4,0.9-0.9c0-0.5-0.4-0.9-0.9-0.9h-3.8
										C125.1,50.8,124.7,51.2,124.7,51.6z"/>
								</g>
							</g>
						</g>
					</g>
					<g>
						<g>
							<g>
								<path class="st5" d="M129.9,46.4v3.4c0,0.5,0.4,0.9,0.9,0.9s0.9-0.4,0.9-0.9v-3.4c0-0.5-0.4-0.9-0.9-0.9
									S129.9,45.9,129.9,46.4z"/>
							</g>
						</g>
						<g>
							<g>
								<path class="st5" d="M129.9,53.5v3.4c0,0.5,0.4,0.9,0.9,0.9s0.9-0.4,0.9-0.9v-3.4c0-0.5-0.4-0.9-0.9-0.9
									S129.9,53.1,129.9,53.5z"/>
							</g>
						</g>
					</g>
				</g>
			</g>
		</g>
		<g>
			<g>
				<g>
					<g>
						<path class="st1" d="M357.4,77.8c0.1,0,0.2,0,0.4,0c1.3-0.3,2-0.4,2-0.4c0.4-0.1,0.6-0.4,0.6-0.8c-0.1-0.4-0.4-0.6-0.8-0.5
							c0,0-0.8,0.1-2.1,0.5c-0.4,0.1-0.6,0.5-0.5,0.8C356.9,77.6,357.1,77.8,357.4,77.8z"/>
					</g>
				</g>
				<g>
					<g>
						<path class="st1" d="M315.7,108.7c-0.7,1.1-1.3,2.3-1.9,3.5c-0.1,0.3-0.5,0.4-0.8,0.4c0,0-0.1,0-0.1,0
							c-0.4-0.2-0.5-0.6-0.3-0.9c0.6-1.2,1.3-2.4,2-3.6c0.2-0.3,0.6-0.4,1-0.3C315.8,108,315.9,108.4,315.7,108.7z"/>
					</g>
					<g>
						<path class="st1" d="M312.1,115.8c-0.5,1.2-1,2.5-1.5,3.7c-0.1,0.3-0.5,0.5-0.9,0.4c0,0,0,0-0.1,0c-0.4-0.1-0.6-0.5-0.4-0.9
							c0.5-1.3,1-2.6,1.5-3.8c0.1-0.3,0.6-0.5,0.9-0.4C312.1,115.1,312.3,115.5,312.1,115.8z"/>
					</g>
					<g>
						<path class="st1" d="M306,135.6c-0.3-0.1-0.6-0.4-0.5-0.7c0.2-1.3,0.4-2.7,0.6-4c0.1-0.4,0.4-0.6,0.8-0.5
							c0.4,0.1,0.7,0.4,0.6,0.8c-0.2,1.3-0.5,2.6-0.6,3.9C306.9,135.4,306.5,135.6,306,135.6C306.1,135.6,306.1,135.6,306,135.6z"/>
					</g>
					<g>
						<path class="st1" d="M308.9,122.5c0.4,0.1,0.6,0.5,0.5,0.8c-0.2,0.6-0.3,1.2-0.5,1.8c-0.2,0.7-0.4,1.4-0.5,2.1
							c-0.1,0.4-0.5,0.6-0.9,0.5c0,0,0,0,0,0c-0.4-0.1-0.6-0.4-0.5-0.8c0.2-0.7,0.3-1.4,0.5-2.1c0.2-0.6,0.3-1.2,0.5-1.8
							C308.1,122.6,308.5,122.4,308.9,122.5C308.9,122.5,308.9,122.5,308.9,122.5z"/>
					</g>
					<g>
						<path class="st1" d="M317.8,105.3c-0.2,0.3-0.5,0.4-0.8,0.3c-0.1,0-0.1,0-0.2-0.1c-0.3-0.2-0.4-0.6-0.2-0.9
							c0.8-1.1,1.6-2.3,2.4-3.3c0.2-0.3,0.7-0.4,1-0.2c0.3,0.2,0.4,0.6,0.2,0.9C319.4,103.1,318.6,104.2,317.8,105.3z"/>
					</g>
					<g>
						<path class="st1" d="M353.7,79c-1.3,0.4-2.6,0.9-3.9,1.4c-0.1,0.1-0.3,0.1-0.4,0c-0.2-0.1-0.4-0.2-0.5-0.4
							c-0.2-0.3,0-0.7,0.4-0.9c1.3-0.5,2.7-1,4-1.4c0.4-0.1,0.8,0.1,0.9,0.4C354.3,78.5,354.1,78.8,353.7,79z"/>
					</g>
					<g>
						<path class="st1" d="M342.2,83.8c-0.2,0.1-0.4,0.1-0.5,0.1c-0.2,0-0.4-0.2-0.5-0.3c-0.2-0.3-0.1-0.7,0.3-0.9
							c1.2-0.7,2.5-1.3,3.8-1.9c0.4-0.2,0.8,0,1,0.3c0.2,0.3,0,0.7-0.3,0.9C344.7,82.6,343.4,83.2,342.2,83.8z"/>
					</g>
					<g>
						<path class="st1" d="M328.6,93.1c-0.2,0.2-0.4,0.2-0.7,0.2c-0.1,0-0.2-0.1-0.3-0.2c-0.3-0.3-0.3-0.7,0-1
							c1-0.9,2.1-1.8,3.2-2.7c0.3-0.2,0.8-0.2,1,0.1c0.3,0.3,0.2,0.7-0.1,0.9C330.6,91.3,329.6,92.2,328.6,93.1z"/>
					</g>
					<g>
						<path class="st1" d="M335.1,88.1c-0.2,0.1-0.4,0.2-0.6,0.1c-0.2,0-0.3-0.1-0.4-0.3c-0.2-0.3-0.2-0.7,0.2-0.9
							c1.2-0.8,2.3-1.6,3.6-2.3c0.3-0.2,0.8-0.1,1,0.2c0.2,0.3,0.1,0.7-0.2,0.9C337.4,86.6,336.2,87.3,335.1,88.1z"/>
					</g>
					<g>
						<path class="st1" d="M322.8,98.9c-0.2,0.2-0.5,0.3-0.7,0.2c-0.1,0-0.2-0.1-0.3-0.1c-0.3-0.2-0.3-0.7-0.1-0.9
							c0.9-1,1.9-2.1,2.8-3c0.3-0.3,0.7-0.3,1,0c0.3,0.3,0.3,0.7,0,1C324.6,96.9,323.7,97.9,322.8,98.9z"/>
					</g>
				</g>
			</g>
			<g>
				<g>
					<g>
						<polygon class="st4" points="358.1,73.3 356.6,62 394.7,67.5 						"/>
					</g>
					<g>
						<polygon class="st2" points="394.7,67.5 359.5,76.1 359.5,76.1 357.7,78.2 358.1,73.3 						"/>
					</g>
					<g>
						<polygon class="st3" points="357.7,78.2 360.8,78.1 359.5,76.1 						"/>
					</g>
					<g>
						<polygon class="st4" points="363.9,75.1 359.5,76.1 366.6,86.4 394.7,67.5 						"/>
					</g>
				</g>
			</g>
		</g>
	</g>
</g>
<g id="DESIGNED_BY_FREEPIK">
</g>
</svg>
