<?xml version="1.0" encoding="utf-8"?>
<!-- Generator: Adobe Illustrator 24.0.2, SVG Export Plug-In . SVG Version: 6.00 Build 0)  -->
<svg version="1.1" id="Layer_1" xmlns="http://www.w3.org/2000/svg" xmlns:xlink="http://www.w3.org/1999/xlink" x="0px" y="0px"
	 viewBox="0 0 87.5 60.7" style="enable-background:new 0 0 87.5 60.7;" xml:space="preserve">
<style type="text/css">
	.st0{fill:#FFFFFF;}
</style>
<path class="st0" d="M75.7,45.8c1.3-1.2,2.1-2.8,2.1-4.7c0-3.5-2.8-6.3-6.3-6.3s-6.3,2.8-6.3,6.3c0,1.9,0.8,3.5,2.1,4.7
	c-2.2,1-4,2.6-5.2,4.8c-1.1-2.1-3-3.8-5.2-4.8c1.3-1.2,2.1-2.8,2.1-4.7c0-3.5-2.8-6.3-6.3-6.3c-1.2,0-2.4,0.4-3.3,1
	c-0.9-6.5-5.7-11.8-11.9-13.4c3.5-1.5,5.9-5,5.9-9.1c0-5.5-4.5-9.9-9.9-9.9c-5.5,0-9.9,4.5-9.9,9.9c0,4.1,2.4,7.5,5.9,9.1
	c-6.1,1.5-10.8,6.6-11.9,12.9c-0.8-0.3-1.6-0.5-2.4-0.5c-3.5,0-6.3,2.8-6.3,6.3c0,1.9,0.8,3.5,2.1,4.7c-3.8,1.6-6.4,5.4-6.4,9.7
	c0,0.7,0.6,1.3,1.3,1.3h18.8h18.7h18.8h18.8c0.7,0,1.3-0.6,1.3-1.3C82.1,51.2,79.5,47.5,75.7,45.8z M67.7,41.1
	c0-2.1,1.7-3.8,3.8-3.8s3.8,1.7,3.8,3.8c0,2.1-1.7,3.8-3.8,3.8S67.7,43.2,67.7,41.1z M52.7,37.3c2.1,0,3.8,1.7,3.8,3.8
	c0,2.1-1.7,3.8-3.8,3.8s-3.8-1.7-3.8-3.8C48.9,39,50.6,37.3,52.7,37.3z M26,13.3c0-4.1,3.3-7.4,7.4-7.4c4.1,0,7.4,3.3,7.4,7.4
	s-3.3,7.4-7.4,7.4C29.4,20.7,26,17.4,26,13.3z M33.5,24.4C40.9,24.4,47,30.5,47,38c0,0.1,0,0.2,0.1,0.3c-0.4,0.9-0.7,1.8-0.7,2.9
	c0,1.9,0.8,3.5,2.1,4.7c-2.2,1-4,2.6-5.2,4.8c-1.1-2.1-3-3.8-5.2-4.8c1.3-1.2,2.1-2.8,2.1-4.7c0-3.5-2.8-6.3-6.3-6.3
	s-6.3,2.8-6.3,6.3c0,1.9,0.8,3.5,2.1,4.7c-2.2,1-4,2.6-5.2,4.8c-1.1-2.1-3-3.8-5.2-4.8c1.3-1.2,2.1-2.8,2.1-4.7
	c0-1.6-0.6-3.1-1.6-4.2C20.5,29.9,26.3,24.4,33.5,24.4z M30.2,41.1c0-2.1,1.7-3.8,3.8-3.8s3.8,1.7,3.8,3.8c0,2.1-1.7,3.8-3.8,3.8
	S30.2,43.2,30.2,41.1z M15.2,37.3c1,0,1.9,0.4,2.6,1c0.8,0.7,1.3,1.8,1.3,2.8c0,2.1-1.7,3.8-3.8,3.8c-2.1,0-3.8-1.7-3.8-3.8
	C11.4,39,13.1,37.3,15.2,37.3z M7.2,54.3c0.6-3.9,4-6.9,8-6.9s7.4,3,8,6.9H7.2z M25.9,54.3c0.6-3.9,4-6.9,8-6.9s7.4,3,8,6.9H25.9z
	 M44.7,54.3c0.6-3.9,4-6.9,8-6.9s7.4,3,8,6.9H44.7z M63.4,54.3c0.6-3.9,4-6.9,8-6.9s7.4,3,8,6.9H63.4z"/>
</svg>
