<?xml version="1.0" encoding="utf-8"?>
<!-- Generator: Adobe Illustrator 24.1.1, SVG Export Plug-In . SVG Version: 6.00 Build 0)  -->
<svg version="1.1" id="Layer_1" xmlns="http://www.w3.org/2000/svg" xmlns:xlink="http://www.w3.org/1999/xlink" x="0px" y="0px"
	 viewBox="0 0 100 78.7" style="enable-background:new 0 0 100 78.7;" xml:space="preserve">
<style type="text/css">
	.st0{fill:#FFFFFF;}
</style>
<path class="st0" d="M4,2.1V63c0,0.3,0.2,0.5,0.5,0.5h7h55.9c0.3,0,0.5,0.2,0.5,0.5v12.5c0,0.4,0.4,0.6,0.8,0.4l19.2-13.3
	c0.1-0.1,0.2-0.1,0.3-0.1h8.1c0.3,0,0.5-0.2,0.5-0.5V2.1c0-0.3-0.2-0.5-0.5-0.5H4.5C4.3,1.6,4,1.8,4,2.1z M70.6,27.1
	c0,0-0.7,7.7-19.5,23.7l0.1,0.1c0,0,0,0-0.1-0.1c0,0,0,0-0.1,0.1l0.1-0.1C38.7,40.2,34.2,33.2,32.6,29.7c-0.3-0.6-0.5-1.2-0.7-1.8
	S31.7,27,31.7,27c-0.5-2.9,0.1-6.1,3.1-9.5l0.1-0.1c6.7-4.5,13.8-1.2,15.8,4.4c0.2,0.4,0.8,0.4,0.9,0c2.1-5.8,9.5-9.1,16.4-4
	l0.1,0.1C70.5,21,71.1,24.3,70.6,27.1L70.6,27.1z"/>
</svg>
