<?xml version="1.0" encoding="utf-8"?>
<!-- Generator: Adobe Illustrator 22.0.1, SVG Export Plug-In . SVG Version: 6.00 Build 0)  -->
<svg version="1.1" id="Layer_1" xmlns="http://www.w3.org/2000/svg" xmlns:xlink="http://www.w3.org/1999/xlink" x="0px" y="0px"
	 viewBox="0 0 1200 1200" style="enable-background:new 0 0 1200 1200;" xml:space="preserve">
<style type="text/css">
	.st0{opacity:0.1;fill:#6C63FF;enable-background:new    ;}
	.st1{opacity:0.1;}
	.st2{fill:#3F3D56;}
	.st3{fill:#6C63FF;}
	.st4{opacity:0.1;enable-background:new    ;}
	.st5{fill:#E0E0E0;}
	.st6{opacity:0.17;enable-background:new    ;}
	.st7{opacity:5.000000e-02;enable-background:new    ;}
	.st8{opacity:7.000000e-02;enable-background:new    ;}
	.st9{fill:#F44E66;}
	.st10{fill:#FFFFFF;}
	.st11{fill:#036DC4;}
	.st12{fill:#D8D6D6;}
	.st13{fill:#FF3C6E;}
	.st14{fill:#FDFDFD;}
</style>
<g>
	<path class="st0" d="M1150.8,1010.3l-132.2-228.9c-1.2-2-3.7-2.7-5.7-1.6c-0.7,0.4-1.2,0.9-1.6,1.6l-132.2,228.9
		c-1.2,2-0.6,4.6,1.4,5.8c0.7,0.4,1.4,0.6,2.2,0.6h39.4c2.3,0,4.2,1.9,4.2,4.2v48.9c0,2.3,1.9,4.2,4.2,4.2H982
		c2.3,0,4.2-1.9,4.2-4.2v-23.6c0-2.3,1.9-4.2,4.2-4.2h48.9c2.3,0,4.2,1.9,4.2,4.2v23.6c0,2.3,1.9,4.2,4.2,4.2h51.5
		c2.3,0,4.2-1.9,4.2-4.2v-48.9c0-2.3,1.9-4.2,4.2-4.2h39.4c2.3,0,4.2-1.9,4.2-4.2C1151.3,1011.7,1151.1,1011,1150.8,1010.3z
		 M966.5,1035.7c-0.8,0.8-1.9,1.3-3,1.3H945c-2.3,0-4.2-1.9-4.2-4.2c0-2.3,1.9-4.2,4.2-4.2h18.6c2.3,0,4.2,1.9,4.2,4.2
		C967.7,1033.8,967.3,1034.9,966.5,1035.7L966.5,1035.7z M1087.9,1035.7c-0.8,0.8-1.9,1.3-3,1.3h-18.5c-2.3,0-4.2-1.9-4.2-4.2
		c0-2.3,1.9-4.2,4.2-4.2h18.5c2.3,0,4.2,1.9,4.2,4.2C1089.1,1033.8,1088.7,1034.9,1087.9,1035.7L1087.9,1035.7z"/>
	<g class="st1">
		<path class="st2" d="M73.6,916.5c0.1,5.5-1.4,11-4.1,15.8c5.5,9.8,5.5,21.8,0,31.6c1.4,2.4,2.4,5,3.1,7.6
			c-13.9-18.3-26.7-37.5-38.3-57.3l0,0c0.3-4.7,1.7-9.3,4-13.5c-2.7-4.8-4.2-10.2-4.1-15.7c0-3.7,0.6-7.4,1.9-11
			c0.6-1.7,1.3-3.3,2.3-4.8c3.6-6.1,9.3-10,15.6-10s12,3.9,15.6,10c0.9,1.5,1.6,3,2.2,4.7c1.3,3.6,1.9,7.3,1.9,11.1
			c0.1,5.5-1.4,11-4.1,15.8C72.2,905.6,73.6,911,73.6,916.5z"/>
		<ellipse class="st2" cx="53.8" cy="853.4" rx="19.7" ry="25.8"/>
		<ellipse class="st2" cx="53.8" cy="821.8" rx="19.7" ry="25.8"/>
		<path class="st3" d="M147.9,664.3c0,21.2-7.1,41.8-20.2,58.4c32.3,41,25.2,100.4-15.9,132.7c-11.8,9.2-25.5,15.6-40.2,18.4
			c-2.3,0.5-4.6,0.8-6.9,1.1c-7.2,0.9-14.5,0.9-21.7,0.1c-2.4-0.3-4.8-0.6-7.1-1.1c-10.3-1.9-20.2-5.5-29.3-10.7
			c-17-34.7-31.9-70.3-44.5-106.8c3.3-12.3,9.1-23.7,16.9-33.7c-19.7-25.1-25.5-58.5-15.2-88.7l71.7,24.1l-67.3-34.9
			c3-6.1,6.6-11.9,10.9-17.2C-53.1,564.9-46,505.5-5,473.3s100.4-25.2,132.7,15.8c2.8,3.5,5.3,7.2,7.5,11.1l-69.3,51l75.2-39
			c9.7,24.1,9.1,51.2-1.8,74.8l-56.1-0.4l51.8,8.5c-2.2,3.8-4.7,7.4-7.4,10.8C140.8,622.6,147.9,643.1,147.9,664.3z"/>
		<path class="st4" d="M147.9,781.1c0,45.1-31.9,84-76.2,92.7c-2.3,0.5-4.6,0.8-6.9,1.1c-7.2,0.9-14.5,0.9-21.7,0.1
			c-2.4-0.3-4.8-0.6-7.1-1.1c-10.3-1.9-20.2-5.5-29.3-10.7c-17-34.7-31.9-70.3-44.5-106.8c3.3-12.3,9.1-23.7,16.9-33.7
			c-13.1-16.6-20.2-37.2-20.2-58.4c0-10.6,181.4,42.3,168.7,58.4C140.8,739.3,147.9,759.9,147.9,781.1z"/>
	</g>
	<g class="st1">
		<path class="st2" d="M1211,891.9c-3.7,11.8-7.6,23.5-11.7,35c-1.1-3.4-1.7-6.9-1.7-10.5C1197.6,905,1203.2,895.4,1211,891.9z"/>
		<path class="st3" d="M1250.6,688.6c0,22.4-4.5,57.7-12.7,98.1c-7.2,35.5-16.2,70.6-27,105.2c-3.7,11.8-7.6,23.5-11.7,35
			c-4.7,13-9.6,25.6-14.7,37.7c-49.2-18-74.4-72.5-56.3-121.7c3.4-9.3,8.3-18,14.4-25.8c-19.8-25.2-25.5-58.6-15.3-88.9l71.7,24.1
			l-67.3-35c3-6.1,6.6-11.9,10.8-17.3c-32.3-41.2-25.1-100.8,16.1-133.1c6.4-5.1,13.5-9.2,21-12.5c28.9,19.7,50.7,48.3,62.1,81.5
			l-12.6,9.2l13.3-6.9c4.5,13.7,7.1,28,7.8,42.5h-3.7l3.8,0.6C1250.6,683.6,1250.6,686.2,1250.6,688.6z"/>
		<path class="st4" d="M1238,786.7c-7.2,35.5-16.2,70.6-27,105.2c-3.7,11.8-7.6,23.5-11.7,35c-4.7,13-9.6,25.6-14.7,37.7
			c-49.2-18-74.4-72.5-56.3-121.7c3.4-9.3,8.3-18,14.4-25.8c-13.1-16.7-20.2-37.3-20.2-58.5C1122.5,752.1,1188.4,768.9,1238,786.7z"
			/>
	</g>
	<g>
		<polygon class="st5" points="855.8,600.6 585.8,535.6 585.8,1044.4 855.8,973.8 		"/>
		<polygon class="st4" points="855.8,600.6 585.8,535.6 585.8,1044.4 855.8,973.8 		"/>
		<polygon class="st5" points="315.8,600.6 585.8,535.6 585.8,1044.4 315.8,975.2 		"/>
		<polygon class="st6" points="315.8,598.3 585.8,533.3 585.8,1044.4 315.8,975.2 		"/>
		<polygon class="st5" points="583.5,537.8 725.7,419.6 995.7,488.9 853.5,602.8 		"/>
		<polygon class="st5" points="179.5,492.6 318,602.8 588,537.8 450.9,421.9 		"/>
		<polygon class="st7" points="177.3,490.3 319.2,602.8 589.2,537.8 448.7,419.6 		"/>
		<polygon class="st5" points="315.8,600.6 315.8,975.2 585.8,1044.4 589.4,672.7 		"/>
		<polygon class="st5" points="855.8,973.8 585.8,1044.4 585.8,672.7 855.8,600.6 		"/>
		<polygon class="st8" points="855.8,973.8 585.8,1044.4 585.8,672.7 855.8,600.6 		"/>
		<polygon class="st8" points="748.3,849.4 748.3,972.4 855.8,942.7 855.8,819.7 		"/>
		<polygon class="st4" points="312.2,795 463.5,833.1 585.1,734.2 585.1,673.4 315.1,605.5 		"/>
		<polygon class="st4" points="857.9,795 706.6,833.1 585.1,734.2 585.1,673.4 855.1,605.5 		"/>
		<polygon class="st5" points="315.8,600.6 177.3,715.1 447.2,782.9 585.8,672.7 		"/>
		<polygon class="st5" points="855.8,600.6 995.7,715.1 727.1,782.9 585.8,672.7 		"/>
		<polygon class="st8" points="855.8,600.6 995.7,715.1 727.1,782.9 585.8,672.7 		"/>
		<g id="XMLID_56_">
			<path id="XMLID_57_" class="st9" d="M711.5,607.3h-45.3c-3.3,0-6,2.7-6,6v21.9c0,3.3,2.7,6,6,6h11.1c0.7,0,1.3,0.2,1.8,0.7
				l7.9,6.8c1,0.9,2.6,0.9,3.6,0l7.9-6.8c0.5-0.4,1.2-0.7,1.8-0.7h11.1c3.3,0,6-2.7,6-6v-21.9C717.5,609.9,714.8,607.3,711.5,607.3z
				"/>
			<path id="XMLID_55_" class="st10" d="M683.2,632.6l-7.6-5.7c-0.8-0.6-1.5-1.5-1.8-2.5c-1.4-4.1,2.7-8.8,7.3-6.7
				c0.1,0,0.2,0.1,0.3,0.2l1.9,1l1.9-1c0.1-0.1,0.2-0.1,0.3-0.2c4.6-2.1,8.7,2.6,7.3,6.7c-0.3,1-1,1.8-1.8,2.5L683.2,632.6z"/>
			<g id="XMLID_63_">
				<path id="XMLID_65_" class="st10" d="M702,631.6h-1.7v-9c0-0.9,0-1.8,0.1-2.6c-0.1,0.1-0.3,0.3-0.5,0.5c-0.2,0.2-1,0.8-2.5,2.1
					l-0.9-1.2l4.1-3.2h1.5V631.6z"/>
			</g>
		</g>
		<g id="XMLID_1_">
			<path id="XMLID_6_" class="st9" d="M471.3,597.2H426c-3.3,0-6,2.7-6,6v21.9c0,3.3,2.7,6,6,6h11.1c0.7,0,1.3,0.2,1.8,0.7l7.9,6.8
				c1,0.9,2.6,0.9,3.6,0l7.9-6.8c0.5-0.4,1.2-0.7,1.8-0.7h11.1c3.3,0,6-2.7,6-6v-21.9C477.3,599.9,474.6,597.2,471.3,597.2z"/>
			<path id="XMLID_5_" class="st10" d="M443,622.5l-7.6-5.7c-0.8-0.6-1.5-1.5-1.8-2.5c-1.4-4.1,2.7-8.8,7.3-6.7
				c0.1,0,0.2,0.1,0.3,0.2l1.9,1l1.9-1c0.1-0.1,0.2-0.1,0.3-0.2c4.6-2.1,8.7,2.6,7.3,6.7c-0.3,1-1,1.8-1.8,2.5L443,622.5z"/>
			<g id="XMLID_2_">
				<path id="XMLID_3_" class="st10" d="M461.8,621.5h-1.7v-9c0-0.9,0-1.8,0.1-2.6c-0.1,0.1-0.3,0.3-0.5,0.5c-0.2,0.2-1,0.8-2.5,2.1
					l-0.9-1.2l4.1-3.2h1.5V621.5z"/>
			</g>
		</g>
		<g id="XMLID_7_">
			<path id="XMLID_12_" class="st9" d="M622.6,389.9h-45.3c-3.3,0-6,2.7-6,6v21.9c0,3.3,2.7,6,6,6h11.1c0.7,0,1.3,0.2,1.8,0.7
				l7.9,6.8c1,0.9,2.6,0.9,3.6,0l7.9-6.8c0.5-0.4,1.2-0.7,1.8-0.7h11.1c3.3,0,6-2.7,6-6v-21.9C628.5,392.6,625.8,389.9,622.6,389.9z
				"/>
			<path id="XMLID_11_" class="st10" d="M594.3,415.2l-7.6-5.7c-0.8-0.6-1.5-1.5-1.8-2.5c-1.4-4.1,2.7-8.8,7.3-6.7
				c0.1,0,0.2,0.1,0.3,0.2l1.9,1l1.9-1c0.1-0.1,0.2-0.1,0.3-0.2c4.6-2.1,8.7,2.6,7.3,6.7c-0.3,1-1,1.8-1.8,2.5L594.3,415.2z"/>
			<g id="XMLID_8_">
				<path id="XMLID_9_" class="st10" d="M613.1,414.2h-1.7v-9c0-0.9,0-1.8,0.1-2.6c-0.1,0.1-0.3,0.3-0.5,0.5c-0.2,0.2-1,0.8-2.5,2.1
					l-0.9-1.2l4.1-3.2h1.5V414.2z"/>
			</g>
		</g>
		<g id="XMLID_13_">
			<path id="XMLID_18_" class="st9" d="M910.3,281.4h-67.9c-4.9,0-8.9,4-8.9,8.9v32.9c0,4.9,4,8.9,8.9,8.9h16.6c1,0,2,0.4,2.8,1
				l11.9,10.2c1.6,1.3,3.8,1.3,5.4,0l11.9-10.2c0.8-0.7,1.7-1,2.8-1h16.6c4.9,0,8.9-4,8.9-8.9v-32.9
				C919.2,285.4,915.2,281.4,910.3,281.4z"/>
			<path id="XMLID_17_" class="st10" d="M867.9,319.3l-11.4-8.6c-1.3-0.9-2.3-2.2-2.8-3.7c-2.1-6.1,4.1-13.1,10.9-10.1
				c0.2,0.1,0.3,0.1,0.5,0.2l2.8,1.4l2.8-1.4c0.2-0.1,0.3-0.2,0.5-0.2c6.8-3.1,13,4,10.9,10.1c-0.5,1.5-1.5,2.8-2.8,3.7L867.9,319.3
				z"/>
			<g id="XMLID_14_">
				<path id="XMLID_15_" class="st10" d="M896,317.8h-2.6v-13.4c0-1.4,0-2.7,0.1-3.9c-0.2,0.2-0.5,0.5-0.7,0.7
					c-0.3,0.2-1.5,1.3-3.8,3.1l-1.4-1.8l6.1-4.7h2.2V317.8z"/>
			</g>
		</g>
		<g id="XMLID_19_">
			<path id="XMLID_24_" class="st9" d="M340.2,149.3h-78.5c-5.7,0-10.3,4.6-10.3,10.3v38c0,5.7,4.6,10.3,10.3,10.3h19.2
				c1.2,0,2.3,0.4,3.2,1.2l13.7,11.8c1.8,1.5,4.4,1.5,6.2,0l13.7-11.8c0.9-0.8,2-1.2,3.2-1.2h19.2c5.7,0,10.3-4.6,10.3-10.3v-38
				C350.5,153.9,345.9,149.3,340.2,149.3z"/>
			<path id="XMLID_23_" class="st10" d="M291.2,193.1l-13.1-9.9c-1.4-1.1-2.6-2.6-3.2-4.3c-2.4-7,4.7-15.2,12.6-11.6
				c0.2,0.1,0.4,0.2,0.5,0.3l3.2,1.7l3.2-1.7c0.2-0.1,0.4-0.2,0.5-0.3c7.9-3.6,15,4.6,12.6,11.6c-0.6,1.7-1.7,3.2-3.2,4.3
				L291.2,193.1z"/>
			<g id="XMLID_20_">
				<path id="XMLID_21_" class="st10" d="M323.7,191.4h-3v-15.5c0-1.6,0-3.1,0.1-4.5c-0.3,0.3-0.5,0.5-0.9,0.8
					c-0.3,0.3-1.8,1.5-4.3,3.6l-1.6-2.1l7.1-5.5h2.6V191.4z"/>
			</g>
		</g>
		<g>
			
				<ellipse transform="matrix(0.4355 -0.9002 0.9002 0.4355 -241.6931 891.0367)" class="st10" cx="589.6" cy="638.2" rx="23.8" ry="23.8"/>
			<g>
				<path class="st11" d="M581.7,638.1l-3.9,1.3c-0.7,0.2-1.1,1-0.9,1.7l3.7,10.7c0.2,0.7,1,1.1,1.7,0.9l3.9-1.3
					c0.7-0.2,1.1-1,0.9-1.7l-3.7-10.7C583.2,638.3,582.4,637.9,581.7,638.1z"/>
				<path class="st11" d="M599.6,633.5l-0.2,0.1c1.1-0.4,1.7-1.6,1.4-2.8c-0.4-1.1-1.6-1.7-2.8-1.4l-6.6,2.3c0.4-1.6,0.8-4,0.2-5.7
					c-0.9-2.7-2.9-3.6-3.9-3.5c-1,0.2-1.5,0.9-1.5,1.8c0,0.9,1,2.2,1,2.8c0,0.9-1.1,2.5-2.2,5.8c-1,2.9,0.2,5.5,0.2,5.5l1.2,3.7
					l1.2,3.7l0.6,1.7c0.2,0.7,1,1.1,1.7,0.8l12.3-4.2c0.8-0.3,1.3-1.2,1-2c-0.3-0.8-1.2-1.3-2-1l0.2-0.1c1-0.3,1.5-1.4,1.2-2.5
					c-0.3-1-1.4-1.5-2.5-1.2l0.7-0.2c1-0.3,1.5-1.4,1.2-2.5C601.7,633.7,600.6,633.1,599.6,633.5z"/>
			</g>
		</g>
		<g>
			
				<ellipse transform="matrix(0.4355 -0.9002 0.9002 0.4355 -15.0825 520.7497)" class="st12" cx="407.7" cy="272.4" rx="27.4" ry="27.4"/>
			<g>
				<path class="st11" d="M398.5,272.3l-4.5,1.5c-0.8,0.3-1.3,1.2-1,2l4.2,12.4c0.3,0.8,1.2,1.3,2,1l4.5-1.5c0.8-0.3,1.3-1.2,1-2
					l-4.2-12.4C400.3,272.5,399.4,272,398.5,272.3z"/>
				<path class="st11" d="M419.2,266.9l-0.3,0.1c1.3-0.4,2-1.9,1.6-3.2c-0.4-1.3-1.9-2-3.2-1.6l-7.6,2.6c0.4-1.8,0.9-4.6,0.3-6.5
					c-1-3.1-3.3-4.2-4.5-4c-1.2,0.2-1.8,1-1.8,2.1c0,1,1.2,2.6,1.1,3.3c0,1.1-1.3,2.9-2.5,6.6c-1.1,3.3,0.2,6.3,0.2,6.3l1.4,4.2
					l1.4,4.2l0.7,2c0.3,0.8,1.2,1.3,2,1l14.2-4.8c0.9-0.3,1.5-1.4,1.1-2.3c-0.3-0.9-1.4-1.5-2.3-1.1l0.2-0.1
					c1.2-0.4,1.8-1.7,1.4-2.8s-1.7-1.8-2.8-1.4l0.8-0.3c1.2-0.4,1.8-1.7,1.4-2.8C421.6,267.1,420.4,266.5,419.2,266.9z"/>
			</g>
		</g>
		<g>
			
				<ellipse transform="matrix(0.4355 -0.9002 0.9002 0.4355 22.4863 1033.0604)" class="st12" cx="834.9" cy="498.6" rx="27.4" ry="27.4"/>
			<g>
				<path class="st11" d="M825.8,498.5l-4.5,1.5c-0.8,0.3-1.3,1.2-1,2l4.2,12.4c0.3,0.8,1.2,1.3,2,1l4.5-1.5c0.8-0.3,1.3-1.2,1-2
					l-4.2-12.4C827.5,498.7,826.6,498.2,825.8,498.5z"/>
				<path class="st11" d="M846.4,493.1l-0.3,0.1c1.3-0.4,2-1.9,1.6-3.2c-0.4-1.3-1.9-2-3.2-1.6l-7.6,2.6c0.4-1.8,0.9-4.6,0.3-6.5
					c-1-3.1-3.3-4.2-4.5-4c-1.2,0.2-1.8,1-1.8,2.1c0,1,1.2,2.6,1.1,3.3c0,1.1-1.3,2.9-2.5,6.6c-1.1,3.3,0.2,6.3,0.2,6.3l1.4,4.2
					l1.4,4.2l0.7,2c0.3,0.8,1.2,1.3,2,1l14.2-4.8c0.9-0.3,1.5-1.4,1.1-2.3c-0.3-0.9-1.4-1.5-2.3-1.1l0.2-0.1
					c1.2-0.4,1.8-1.7,1.4-2.8s-1.7-1.8-2.8-1.4l0.8-0.3c1.2-0.4,1.8-1.7,1.4-2.8C848.9,493.3,847.6,492.7,846.4,493.1z"/>
			</g>
		</g>
		<g>
			
				<ellipse transform="matrix(0.4355 -0.9002 0.9002 0.4355 175.9131 686.0363)" class="st12" cx="634.9" cy="202.8" rx="45.3" ry="45.3"/>
			<g>
				<path class="st11" d="M619.9,202.6l-7.4,2.5c-1.4,0.5-2.1,2-1.6,3.3l7,20.4c0.5,1.4,2,2.1,3.3,1.6l7.4-2.5
					c1.4-0.5,2.1-2,1.6-3.3l-7-20.4C622.7,202.9,621.2,202.1,619.9,202.6z"/>
				<path class="st11" d="M654,193.7l-0.4,0.2c2.2-0.7,3.3-3.1,2.6-5.3c-0.7-2.2-3.1-3.3-5.3-2.6l-12.6,4.3c0.7-3,1.5-7.6,0.4-10.8
					c-1.7-5-5.4-6.9-7.3-6.6c-1.9,0.3-2.9,1.7-2.9,3.4c0,1.7,1.9,4.3,1.9,5.4c0,1.8-2.1,4.8-4.2,11c-1.9,5.5,0.3,10.4,0.3,10.4
					l2.4,7l2.4,7l1.1,3.2c0.5,1.3,1.9,2.1,3.3,1.6l23.4-8c1.6-0.5,2.4-2.2,1.9-3.8c-0.5-1.6-2.2-2.4-3.8-1.9l0.4-0.1
					c1.9-0.7,3-2.8,2.3-4.7s-2.8-3-4.7-2.3l1.3-0.4c1.9-0.7,3-2.8,2.3-4.7C658,194.1,655.9,193,654,193.7z"/>
			</g>
		</g>
		<g>
			
				<ellipse transform="matrix(0.4355 -0.9002 0.9002 0.4355 150.3807 1068.2201)" class="st12" cx="926.9" cy="414.2" rx="35" ry="35"/>
			<g>
				<path class="st11" d="M915.2,414.1l-5.7,1.9c-1.1,0.4-1.6,1.5-1.3,2.6l5.4,15.8c0.4,1.1,1.5,1.6,2.6,1.3l5.7-1.9
					c1.1-0.4,1.6-1.5,1.3-2.6l-5.4-15.8C917.5,414.3,916.3,413.7,915.2,414.1z"/>
				<path class="st11" d="M941.6,407.2l-0.3,0.1c1.7-0.6,2.6-2.4,2-4.1c-0.6-1.7-2.4-2.6-4.1-2l-9.7,3.3c0.6-2.3,1.2-5.9,0.3-8.3
					c-1.3-3.9-4.2-5.3-5.7-5.1c-1.5,0.2-2.2,1.3-2.3,2.6c0,1.3,1.5,3.3,1.5,4.2c0,1.4-1.6,3.7-3.2,8.5c-1.5,4.2,0.2,8,0.2,8l1.8,5.4
					l1.8,5.4l0.9,2.5c0.4,1,1.5,1.6,2.5,1.2l18.1-6.2c1.2-0.4,1.9-1.7,1.5-2.9c-0.4-1.2-1.7-1.9-2.9-1.5l0.3-0.1
					c1.5-0.5,2.3-2.1,1.8-3.6c-0.5-1.5-2.1-2.3-3.6-1.8l1-0.3c1.5-0.5,2.3-2.1,1.8-3.6C944.7,407.5,943.1,406.7,941.6,407.2z"/>
			</g>
		</g>
		<g>
			
				<ellipse transform="matrix(0.4355 -0.9002 0.9002 0.4355 89.0086 906.3671)" class="st12" cx="767.2" cy="382.2" rx="35" ry="35"/>
			<g>
				<path class="st11" d="M755.5,382.1l-5.7,1.9c-1.1,0.4-1.6,1.5-1.3,2.6l5.4,15.8c0.4,1.1,1.5,1.6,2.6,1.3l5.7-1.9
					c1.1-0.4,1.6-1.5,1.3-2.6l-5.4-15.8C757.7,382.3,756.6,381.7,755.5,382.1z"/>
				<path class="st11" d="M781.9,375.2l-0.3,0.1c1.7-0.6,2.6-2.4,2-4.1c-0.6-1.7-2.4-2.6-4.1-2l-9.7,3.3c0.6-2.3,1.2-5.9,0.3-8.3
					c-1.3-3.9-4.2-5.3-5.7-5.1c-1.5,0.2-2.2,1.3-2.3,2.6c0,1.3,1.5,3.3,1.5,4.2c0,1.4-1.6,3.7-3.2,8.5c-1.5,4.2,0.2,8,0.2,8l1.8,5.4
					l1.8,5.4l0.9,2.5c0.4,1,1.5,1.6,2.5,1.2l18.1-6.2c1.2-0.4,1.9-1.7,1.5-2.9c-0.4-1.2-1.7-1.9-2.9-1.5l0.3-0.1
					c1.5-0.5,2.3-2.1,1.8-3.6c-0.5-1.5-2.1-2.3-3.6-1.8l1-0.3c1.5-0.5,2.3-2.1,1.8-3.6C785,375.5,783.4,374.7,781.9,375.2z"/>
			</g>
		</g>
		<g>
			<path class="st13" d="M564.5,557c-6,13.4-21.8,19.5-35.2,13.5c-13.4-6-19.5-21.8-13.5-35.2c6-13.4,21.8-19.5,35.2-13.5
				C564.4,527.8,570.5,543.6,564.5,557z"/>
			<path class="st14" d="M555.9,549.1c2.1-4.8,0-9.8-3.8-11.5c-3.2-1.4-6.9-0.6-9,2c0.5-3.3-1.4-6.6-4.6-8.1
				c-3.8-1.7-9,0.1-11.1,4.9c-3.2,7.2,4.2,20.5,6.5,22.6c0,0,0.1,0.1,0.1,0.1c0.1,0.1,0.1,0.1,0.2,0.1c0,0,0,0,0,0c0,0,0,0,0,0
				c0.1,0,0.1,0,0.2,0.1c0.1,0,0.1,0,0.2,0C537.9,559.7,552.7,556.4,555.9,549.1z"/>
		</g>
		<g>
			<path class="st13" d="M550.9,340.8c-6,13.4-21.8,19.5-35.2,13.5c-13.4-6-19.5-21.8-13.5-35.2c6-13.4,21.8-19.5,35.2-13.5
				C550.9,311.6,556.9,327.4,550.9,340.8z"/>
			<path class="st14" d="M542.4,332.9c2.1-4.8,0-9.8-3.8-11.5c-3.2-1.4-6.9-0.6-9,2c0.5-3.3-1.4-6.6-4.6-8.1
				c-3.8-1.7-9,0.1-11.1,4.9c-3.2,7.2,4.2,20.5,6.5,22.6c0,0,0.1,0.1,0.1,0.1c0.1,0.1,0.1,0.1,0.2,0.1c0,0,0,0,0,0c0,0,0,0,0,0
				c0.1,0,0.1,0,0.2,0.1c0.1,0,0.1,0,0.2,0C524.3,343.4,539.1,340.1,542.4,332.9z"/>
		</g>
		<g>
			<path class="st13" d="M363.2,394.1c-6,13.4-21.8,19.5-35.2,13.5c-13.4-6-19.5-21.8-13.5-35.2c6-13.4,21.8-19.5,35.2-13.5
				C363.2,364.9,369.2,380.7,363.2,394.1z"/>
			<path class="st14" d="M354.7,386.2c2.1-4.8,0-9.8-3.8-11.5c-3.2-1.4-6.9-0.6-9,2c0.5-3.3-1.4-6.6-4.6-8.1
				c-3.8-1.7-9,0.1-11.1,4.9c-3.2,7.2,4.2,20.5,6.5,22.6c0,0,0.1,0.1,0.1,0.1c0.1,0.1,0.1,0.1,0.2,0.1c0,0,0,0,0,0c0,0,0,0,0,0
				c0.1,0,0.1,0,0.2,0.1c0.1,0,0.1,0,0.2,0C336.6,396.8,351.4,393.4,354.7,386.2z"/>
		</g>
		<g>
			<path class="st13" d="M366.7,518.6c-6,13.4-21.8,19.5-35.2,13.5c-13.4-6-19.5-21.8-13.5-35.2c6-13.4,21.8-19.5,35.2-13.5
				C366.7,489.4,372.7,505.1,366.7,518.6z"/>
			<path class="st14" d="M358.1,510.7c2.1-4.8,0-9.8-3.8-11.5c-3.2-1.4-6.9-0.6-9,2c0.5-3.3-1.4-6.6-4.6-8.1
				c-3.8-1.7-9,0.1-11.1,4.9c-3.2,7.2,4.2,20.5,6.5,22.6c0,0,0.1,0.1,0.1,0.1c0.1,0.1,0.1,0.1,0.2,0.1c0,0,0,0,0,0c0,0,0,0,0,0
				c0.1,0,0.1,0,0.2,0.1c0.1,0,0.1,0,0.2,0C340.1,521.2,354.9,517.9,358.1,510.7z"/>
		</g>
		<g>
			<path class="st13" d="M741.8,301.4c-6,13.4-21.8,19.5-35.2,13.5c-13.4-6-19.5-21.8-13.5-35.2c6-13.4,21.8-19.5,35.2-13.5
				C741.8,272.2,747.8,288,741.8,301.4z"/>
			<path class="st14" d="M733.3,293.5c2.1-4.8,0-9.8-3.8-11.5c-3.2-1.4-6.9-0.6-9,2c0.5-3.3-1.4-6.6-4.6-8.1
				c-3.8-1.7-9,0.1-11.1,4.9c-3.2,7.2,4.2,20.5,6.5,22.6c0,0,0.1,0.1,0.1,0.1c0.1,0.1,0.1,0.1,0.2,0.1c0,0,0,0,0,0c0,0,0,0,0,0
				c0.1,0,0.1,0,0.2,0.1c0.1,0,0.1,0,0.2,0C715.2,304,730,300.7,733.3,293.5z"/>
		</g>
		<g>
			<path class="st13" d="M857.7,190.2c-6,13.4-21.8,19.5-35.2,13.5c-13.4-6-19.5-21.8-13.5-35.2c6-13.4,21.8-19.5,35.2-13.5
				C857.7,161,863.7,176.8,857.7,190.2z"/>
			<path class="st14" d="M849.1,182.3c2.1-4.8,0-9.8-3.8-11.5c-3.2-1.4-6.9-0.6-9,2c0.5-3.3-1.4-6.6-4.6-8.1
				c-3.8-1.7-9,0.1-11.1,4.9c-3.2,7.2,4.2,20.5,6.5,22.6c0,0,0.1,0.1,0.1,0.1c0.1,0.1,0.1,0.1,0.2,0.1c0,0,0,0,0,0c0,0,0,0,0,0
				c0.1,0,0.1,0,0.2,0.1c0.1,0,0.1,0,0.2,0C831.1,192.9,845.9,189.6,849.1,182.3z"/>
		</g>
		<g>
			<path class="st13" d="M501.6,165.8c-6,13.4-21.8,19.5-35.2,13.5c-13.4-6-19.5-21.8-13.5-35.2c6-13.4,21.8-19.5,35.2-13.5
				C501.6,136.6,507.6,152.3,501.6,165.8z"/>
			<path class="st14" d="M493.1,157.8c2.1-4.8,0-9.8-3.8-11.5c-3.2-1.4-6.9-0.6-9,2c0.5-3.3-1.4-6.6-4.6-8.1
				c-3.8-1.7-9,0.1-11.1,4.9c-3.2,7.2,4.2,20.5,6.5,22.6c0,0,0.1,0.1,0.1,0.1c0.1,0.1,0.1,0.1,0.2,0.1c0,0,0,0,0,0c0,0,0,0,0,0
				c0.1,0,0.1,0,0.2,0.1c0.1,0,0.1,0,0.2,0C475,168.4,489.8,165.1,493.1,157.8z"/>
		</g>
		<g>
			<path class="st13" d="M1027.8,208.3c-6,13.4-21.8,19.5-35.2,13.5c-13.4-6-19.5-21.8-13.5-35.2c6-13.4,21.8-19.5,35.2-13.5
				C1027.7,179.1,1033.8,194.8,1027.8,208.3z"/>
			<path class="st14" d="M1019.2,200.4c2.1-4.8,0-9.8-3.8-11.5c-3.2-1.4-6.9-0.6-9,2c0.5-3.3-1.4-6.6-4.6-8.1
				c-3.8-1.7-9,0.1-11.1,4.9c-3.2,7.2,4.2,20.5,6.5,22.6c0,0,0.1,0.1,0.1,0.1c0.1,0.1,0.1,0.1,0.2,0.1c0,0,0,0,0,0c0,0,0,0,0,0
				c0.1,0,0.1,0,0.2,0.1c0.1,0,0.1,0,0.2,0C1001.2,210.9,1016,207.6,1019.2,200.4z"/>
		</g>
		<g>
			<path class="st13" d="M751.2,528.1c-4.7,10.5-17.1,15.3-27.6,10.6c-10.5-4.7-15.3-17.1-10.6-27.6c4.7-10.5,17.1-15.3,27.6-10.6
				C751.2,505.1,755.9,517.5,751.2,528.1z"/>
			<path class="st14" d="M744.5,521.8c1.7-3.7,0-7.7-3-9c-2.5-1.1-5.4-0.4-7.1,1.6c0.4-2.6-1.1-5.2-3.6-6.3c-2.9-1.3-7,0.1-8.7,3.8
				c-2.5,5.7,3.3,16.1,5.1,17.7c0,0,0.1,0.1,0.1,0.1c0.1,0,0.1,0.1,0.2,0.1c0,0,0,0,0,0c0,0,0,0,0,0c0,0,0.1,0,0.2,0.1
				c0,0,0.1,0,0.1,0C730.4,530.1,742,527.5,744.5,521.8z"/>
		</g>
	</g>
</g>
</svg>
