<?xml version="1.0" encoding="utf-8"?>
<!-- Generator: Adobe Illustrator 24.1.2, SVG Export Plug-In . SVG Version: 6.00 Build 0)  -->
<svg version="1.1" id="Layer_1" xmlns="http://www.w3.org/2000/svg" xmlns:xlink="http://www.w3.org/1999/xlink" x="0px" y="0px"
	 viewBox="0 0 750 60.1" style="enable-background:new 0 0 750 60.1;" xml:space="preserve">
<style type="text/css">
	.st0{fill:#FFFFFF;}
</style>
<g>
	<path class="st0" d="M802.3,121c-22.6,2.5-23.6-16-46.4-16c-22.7,0-22.7,16-45.5,16c-22.7,0-22.7-16-45.5-16
		c-22.7,0-22.7,16-45.5,16c-22.7,0-22.7-16-45.5-16c-22.7,0-22.7,16-45.5,16c-22.7,0-22.7-16-45.5-16c-22.7,0-22.7,16-45.5,16
		c-22.7,0-22.7-16-45.5-16c-22.7,0-22.7,16-45.5,16c-22.7,0-22.7-16-45.5-16c-22.7,0-22.7,16-45.5,16c-22.7,0-22.7-16-45.5-16
		c-22.7,0-22.7,16-45.5,16c-22.7,0-22.7-16-45.5-16c-22.7,0-22.7,16-45.5,16c-22.7,0-22.7-16-45.5-16c-22.8,0-22.8,16-45.5,16
		c-22.8,0-22-13.4-44.6-16c-2.5-0.3-8.9,5.4-8.9,2.9c0-2.5,16-2.5,16-5c0-2.5-16-2.5-16-5c0-2.5,16-2.5,16-5c0-2.5-16-2.5-16-5
		c0-2.5,16-2.5,16-5c0-2.5-16-2.5-16-5c0-2.5,16-2.5,16-5c0-2.5-16-2.5-16-5c0-2.5,16-2.5,16-5c0-2.5-16-2.5-16-5c0-2.5,16-2.5,16-5
		s-16-2.5-16-5c0-2.5,16-2.5,16-5c0-2.5-16-2.5-16-5c0-2.5,16-2.5,16-5c0-2.5-16-2.5-16-5.1c0-2.5,16-2.5,16-5.1s-11.4-12.7-8.9-13
		c22.6-2.5,23.6,16,46.4,16c22.7,0,22.7-16,45.5-16c22.7,0,22.7,16,45.5,16c22.7,0,22.7-16,45.5-16c22.7,0,22.7,16,45.5,16
		c22.7,0,22.7-16,45.5-16c22.7,0,22.7,16,45.5,16c22.7,0,22.7-16,45.5-16c22.7,0,22.7,16,45.5,16c22.7,0,22.7-16,45.5-16
		c22.7,0,22.7,16,45.5,16c22.7,0,22.7-16,45.5-16c22.7,0,22.7,16,45.5,16c22.7,0,22.7-16,45.5-16c22.7,0,22.7,16,45.5,16
		c22.7,0,22.7-16,45.5-16c22.7,0,22.7,16,45.5,16c22.8,0,22.8-16,45.5-16c22.8,0,22,13.4,44.6,16c2.5,0.3,8.9-5.4,8.9-2.9
		c0,2.5-16,2.5-16,5c0,2.5,16,2.5,16,5c0,2.5-16,2.5-16,5c0,2.5,16,2.5,16,5c0,2.5-16,2.5-16,5c0,2.5,16,2.5,16,5c0,2.5-16,2.5-16,5
		c0,2.5,16,2.5,16,5c0,2.5-16,2.5-16,5c0,2.5,16,2.5,16,5c0,2.5-16,2.5-16,5s16,2.5,16,5c0,2.5-16,2.5-16,5c0,2.5,16,2.5,16,5
		c0,2.5-16,2.5-16,5c0,2.5,16,2.5,16,5.1c0,2.5-16.3,4.1-15.9,6.6C794.8,116.1,804.8,120.7,802.3,121z"/>
</g>
</svg>
