<?xml version="1.0" encoding="utf-8"?>
<!-- Generator: Adobe Illustrator 24.0.2, SVG Export Plug-In . SVG Version: 6.00 Build 0)  -->
<svg version="1.1" id="Layer_1" xmlns="http://www.w3.org/2000/svg" xmlns:xlink="http://www.w3.org/1999/xlink" x="0px" y="0px"
	 viewBox="0 0 512 467" style="enable-background:new 0 0 512 467;" xml:space="preserve">
<style type="text/css">
	.st0{fill:#FFFFFF;}
</style>
<path class="st0" d="M328.7,335.2v90h114.9v-90h-51.5v-32.1H262.9v-22.7h108.9V163.7h-25.7v12h13.7v92.8H154v-92.8h24.6V242h40v-6.4
	h88.1c9.1,0,16.4-7.4,16.4-16.4c0-2-0.4-3.9-1-5.6c6-2.4,10.3-8.3,10.3-15.2c0-3.2-0.9-6.2-2.5-8.7c3.3-3,5.4-7.3,5.4-12.2
	c0-6.4-3.7-11.9-9-14.6c0.8-1.9,1.2-4,1.2-6.2c0-9.1-7.4-16.4-16.4-16.4h-33.5v-20.9c0-5.9-2.3-11.4-6.4-15.5
	c-4.2-4.1-9.7-6.4-15.5-6.4c-7.9,0-14.3,6.4-14.3,14.3v16.1l-5.9,16.1c0,0,0,0,0,0l-0.4,0.2l-16.5,14.8v-3.8h-40v8.9H142v116.8
	h108.9v22.7H121.6v32.1H70.1v90h114.9v-90h-51.5v-20.1h117.3v20.1h-51.5v90h114.9v-90h-51.5v-20.1h117.3v20.1L328.7,335.2
	L328.7,335.2z M253.3,129.7v-18.3c0-1.2,1-2.3,2.3-2.3c2.6,0,5.1,1,7,2.9c1.9,1.9,2.9,4.4,2.9,7v20.9h-16L253.3,129.7z M218.5,174.7
	l23.9-21.3c1.4-0.9,3-1.3,4.7-1.3h64c2.4,0,4.4,2,4.4,4.4s-2,4.4-4.4,4.4h-6.2h-11.9v12h11.9h6.2h7.7c2.4,0,4.4,2,4.4,4.4
	s-2,4.4-4.4,4.4h-2.9h-18.8h-2.9v12h2.9h18.8c2.4,0,4.4,2,4.4,4.4s-2,4.4-4.4,4.4h-9.3h-12.5h-3.4v12h3.4h12.5c2.4,0,4.4,2,4.4,4.4
	s-2,4.4-4.4,4.4h-88.1L218.5,174.7L218.5,174.7z M190.5,166.8h16v2.6V230h-16V166.8z M173.1,347.2v66H82.1v-66H173.1z M302.3,347.2
	v66h-90.9v-66H302.3z M431.6,347.2v66h-90.9v-66H431.6z"/>
<path class="st0" d="M43,451.2h427.8V169.7h-12v269.6H55V91.1h403.8v31h12V38.4H43V451.2z M426.1,50.4h32.6v28.7h-32.6V50.4z
	 M382.5,50.4h31.7v28.7h-31.7V50.4z M55,50.4h315.5v28.7H55V50.4z"/>
<rect x="458.8" y="137.8" class="st0" width="12" height="16.1"/>
<rect x="321.5" y="58.7" class="st0" width="32.2" height="12"/>
<rect x="297.1" y="58.7" class="st0" width="12.4" height="12"/>
<rect x="272.8" y="58.7" class="st0" width="12.4" height="12"/>
<path class="st0" d="M148.7,359.4h-42.1v42.1h42.1V359.4z M136.7,389.5h-18.1v-18.1h18.1V389.5z"/>
<path class="st0" d="M256.9,404.8c13.4,0,24.4-10.9,24.4-24.4c0-13.4-10.9-24.4-24.4-24.4c-13.4,0-24.4,10.9-24.4,24.4
	C232.5,393.9,243.4,404.8,256.9,404.8z M256.9,368.1c6.8,0,12.4,5.5,12.4,12.4s-5.5,12.4-12.4,12.4s-12.4-5.5-12.4-12.4
	S250.1,368.1,256.9,368.1z"/>
<path class="st0" d="M386.1,353.2l-27.8,48.1h55.6L386.1,353.2z M386.1,377.2l7,12.1h-14L386.1,377.2z"/>
<polygon class="st0" points="84.9,15 20.1,15 20.1,99 32.1,99 32.1,27 84.9,27 "/>
<rect x="20.1" y="114.7" class="st0" width="12" height="28"/>
<rect x="479.9" y="294.7" class="st0" width="12" height="23"/>
<rect x="479.9" y="337.7" class="st0" width="12" height="81.6"/>
</svg>
