<?xml version="1.0" encoding="utf-8"?>
<!-- Generator: Adobe Illustrator 24.0.2, SVG Export Plug-In . SVG Version: 6.00 Build 0)  -->
<svg version="1.1" id="Layer_1" xmlns="http://www.w3.org/2000/svg" xmlns:xlink="http://www.w3.org/1999/xlink" x="0px" y="0px"
	 viewBox="0 0 329.8 254.8" style="enable-background:new 0 0 329.8 254.8;" xml:space="preserve">
<style type="text/css">
	.st0{fill:#F14E69;}
	.st1{fill:#FFFFFF;}
</style>
<g>
	<path class="st0" d="M233.3,6c-0.3,0-0.6-0.1-0.9-0.1h-37h-62h-37c-0.3,0-0.6,0.1-0.9,0.1C44.9,8.5,4.8,50.2,4.8,101.2
		s40.1,91.4,90.5,93.9c0,0,0.2,0,0.4,0l24.2,54.6l27.3-54.5c24.3,0,48.1,0,48.1,0s37.7,0,38,0c50.4-2.5,90.5-42.8,90.5-93.9
		C323.8,50.2,283.7,8.5,233.3,6z"/>
	<g>
		<path class="st1" d="M110.5,58V45.2c0-4-3.2-7.2-7.2-7.2h-5.6c-0.9,0-1.6,0.7-1.6,1.6v9.7L87,63.4c-0.6,0.9-1,1.7-1.2,2.4
			c-0.6-0.3-1.2-0.5-1.8-0.5l-15.3-0.1c-2.9,0-5.2,2.3-5.2,5.2v22.5c0,2.9,2.3,5.2,5.2,5.2h14.6c1.5,0,2.8-0.6,3.8-1.7
			c1.3,0.9,2.9,1.4,4.5,1.4h27c3.8,0,6.9-3.1,6.9-6.9c0-0.7-0.1-1.4-0.3-2c2.6-1,4.5-3.5,4.5-6.5c0-1-0.2-1.9-0.6-2.7
			c1.7-1.3,2.8-3.3,2.8-5.5c0-1.8-0.7-3.4-1.8-4.7c1.2-1.2,1.8-2.9,1.8-4.7c0-3.8-3.1-6.9-6.9-6.9C125,58,110.5,58,110.5,58z
			 M80.4,93.7c-1.6,0-2.8-1.3-2.8-2.8c0-1.6,1.3-2.8,2.8-2.8c1.6,0,2.8,1.3,2.8,2.8C83.2,92.4,82,93.7,80.4,93.7z M128.6,64.8
			c0,1.4-0.8,2.6-2,3.2c-0.6,0.3-0.9,0.8-0.9,1.5s0.3,1.2,0.9,1.5c1.2,0.6,2,1.8,2,3.2c0,1.5-1,2.9-2.4,3.4c-0.5,0.2-0.9,0.6-1,1.1
			s0,1.1,0.3,1.5c0.5,0.6,0.8,1.5,0.8,2.3c0,2-1.6,3.6-3.6,3.6h-0.1c-0.6,0-1.2,0.4-1.5,0.9c-0.3,0.6-0.2,1.2,0.2,1.7
			c0.5,0.6,0.8,1.4,0.8,2.2c0,2-1.6,3.6-3.6,3.6h-27c-1.2,0-2.4-0.5-3.3-1.3V68.6c0.1-0.4,0.2-0.7,0.3-1c0.2-0.8,0.4-1.5,1-2.3
			l9.4-14.6c0.2-0.3,0.3-0.6,0.3-0.9v-8.6h4c2.2,0,4,1.8,4,4v14.4c0,0.9,0.7,1.6,1.6,1.6H125C127,61.2,128.6,62.8,128.6,64.8z"/>
		<path class="st1" d="M94.9,23C67.9,23,46,44.9,46,71.9s21.9,48.9,48.9,48.9s48.9-21.9,48.9-48.9S121.9,23,94.9,23z M94.9,117.5
			c-25.2,0-45.6-20.5-45.6-45.6s20.5-45.6,45.6-45.6s45.6,20.5,45.6,45.6S120,117.5,94.9,117.5z"/>
	</g>
	<g>
		<path class="st1" d="M224.5,91.5c3.2,3.2,6.1,6,7.4,7.7c0.4,0.4,1,0.8,1.7,0.8l0,0c0.7,0,1.2-0.2,1.7-0.8c1.4-1.6,4.3-4.3,7.6-7.6
			c9.1-8.8,15.6-15.2,16.9-18.4c0.8-1.8,1.1-3.7,1.1-5.6c0-8.1-6.4-14.7-14.6-14.8c-5.8-0.1-10,3.9-12.4,6.8
			c-2.4-2.9-6.7-6.9-12.4-6.9h-0.1c-8,0-14.7,6.6-14.7,14.6c0,1.9,0.3,3.8,1,5.6C209.1,76.1,215.5,82.7,224.5,91.5z M221.4,57.3
			C221.4,57.3,221.5,57.3,221.4,57.3c3.8,0,7.1,2.3,10.7,7.4c0.4,0.6,1.1,0.9,1.8,0.9s1.4-0.3,1.8-0.9c3.7-5,7-7.3,10.7-7.3
			c5.7,0,10.2,4.7,10.1,10.3c0,1.3-0.2,2.7-0.8,3.9c-1.1,2.6-10,11.2-15.9,16.9c-2.3,2.3-4.6,4.3-6.1,6c-1.6-1.7-3.7-3.8-6.1-6.1
			c-5.9-5.8-14.7-14.4-15.7-17.1c-0.4-1.2-0.8-2.6-0.8-3.9C211.3,61.8,215.8,57.3,221.4,57.3z"/>
		<path class="st1" d="M233.5,120.8c0.1,0,0.2,0,0.3,0c26.8,0,48.6-21.8,48.9-48.5c0.2-27-21.7-49-48.5-49.2
			c-27-0.2-49,21.7-49.2,48.5C184.7,98.6,206.6,120.6,233.5,120.8z M233.8,27.5c0.1,0,0.2,0,0.3,0c24.4,0.1,44.2,20.2,44.1,44.8
			c-0.1,24.3-20.1,44.1-44.4,44.1c-0.1,0-0.2,0-0.3,0c-24.4-0.1-44.2-20.2-44.1-44.8C189.5,47.3,209.5,27.5,233.8,27.5z"/>
	</g>
	<g>
		<path class="st1" d="M58.7,133.8h7v36.9h-7V133.8z M61.9,149.7h11.8c0.8,0,1.6-0.2,2.2-0.6c0.6-0.4,1.1-0.9,1.5-1.6
			c0.4-0.7,0.5-1.5,0.5-2.4c0-0.9-0.2-1.7-0.5-2.4s-0.8-1.2-1.5-1.6c-0.6-0.4-1.4-0.6-2.2-0.6H61.9v-6.7h11.6c2.3,0,4.3,0.5,6.1,1.4
			c1.8,0.9,3.1,2.3,4.1,4c1,1.7,1.4,3.7,1.4,5.9s-0.5,4.2-1.4,5.9c-1,1.7-2.3,3-4.1,3.9c-1.8,0.9-3.8,1.4-6.1,1.4H61.9V149.7z"/>
		<path class="st1" d="M90.6,133.7h7v36.9h-7V133.7z M93.3,149.1h12.8c0.7,0,1.3-0.2,1.9-0.5c0.5-0.4,1-0.9,1.3-1.5
			c0.3-0.7,0.5-1.4,0.5-2.3c0-0.9-0.1-1.6-0.4-2.3c-0.3-0.7-0.7-1.2-1.3-1.5c-0.5-0.4-1.2-0.5-1.9-0.5H93.3v-6.7h13.4
			c2,0,3.8,0.5,5.4,1.4s2.7,2.2,3.6,3.9c0.8,1.7,1.3,3.6,1.3,5.8c0,2.2-0.4,4.1-1.3,5.8c-0.8,1.7-2,3-3.6,3.9
			c-1.5,0.9-3.3,1.4-5.3,1.4H93.3V149.1z M101.1,154.7l7.4-1.2l9.9,17.2h-8.4L101.1,154.7z"/>
		<path class="st1" d="M129.1,169.4c-2-1.1-3.6-2.7-4.7-4.8s-1.7-4.4-1.7-7.1V147c0-2.7,0.6-5.1,1.7-7.1s2.7-3.6,4.7-4.8
			s4.4-1.7,7.1-1.7c2.7,0,5,0.6,7.1,1.7s3.6,2.7,4.7,4.8c1.1,2.1,1.7,4.4,1.7,7.1v10.5c0,2.7-0.6,5.1-1.7,7.1
			c-1.1,2.1-2.7,3.6-4.7,4.8s-4.4,1.7-7.1,1.7C133.5,171,131.1,170.5,129.1,169.4z M139.4,163.3c0.9-0.5,1.7-1.3,2.2-2.3
			c0.5-1,0.8-2.1,0.8-3.4v-10.8c0-1.3-0.3-2.4-0.8-3.4c-0.5-1-1.2-1.7-2.2-2.3s-2-0.8-3.3-0.8c-1.3,0-2.4,0.3-3.3,0.8
			s-1.7,1.3-2.2,2.3c-0.5,1-0.8,2.1-0.8,3.4v10.8c0,1.3,0.3,2.4,0.8,3.4c0.5,1,1.2,1.7,2.2,2.3s2,0.8,3.3,0.8
			C137.4,164.1,138.5,163.8,139.4,163.3z"/>
		<path class="st1" d="M161.6,169.4c-2-1.1-3.5-2.6-4.6-4.7c-1-2.1-1.6-4.5-1.6-7.4v-23.5h7v23.7c0,2.1,0.6,3.8,1.7,4.9
			c1.1,1.2,2.7,1.8,4.8,1.8c2.1,0,3.7-0.6,4.8-1.8s1.7-2.8,1.7-4.9v-23.7h7v23.5c0,2.9-0.5,5.4-1.6,7.4c-1.1,2.1-2.6,3.6-4.6,4.7
			s-4.5,1.6-7.3,1.6S163.6,170.5,161.6,169.4z"/>
		<path class="st1" d="M184.9,133.8h27v6.7h-27V133.8z M195,136.8h7v33.9h-7V136.8z"/>
		<path class="st1" d="M220.7,169.4c-2-1.1-3.5-2.6-4.6-4.7c-1-2.1-1.6-4.5-1.6-7.4v-23.5h7v23.7c0,2.1,0.6,3.8,1.7,4.9
			s2.7,1.8,4.8,1.8c2.1,0,3.7-0.6,4.8-1.8s1.7-2.8,1.7-4.9v-23.7h7v23.5c0,2.9-0.5,5.4-1.6,7.4c-1.1,2.1-2.6,3.6-4.6,4.7
			s-4.5,1.6-7.3,1.6C225.1,171,222.7,170.5,220.7,169.4z"/>
		<path class="st1" d="M248.6,133.8h7v36.9h-7V133.8z M251.6,164h11.8c1.6,0,2.8-0.4,3.7-1.2c0.9-0.8,1.3-1.8,1.3-3.2v-0.1
			c0-0.9-0.2-1.7-0.6-2.4c-0.4-0.7-1-1.2-1.7-1.5c-0.8-0.3-1.7-0.5-2.7-0.5h-11.8v-6.7h11.8c1.4,0,2.5-0.4,3.3-1.1
			c0.8-0.7,1.2-1.8,1.2-3.1c0-1.2-0.4-2.1-1.2-2.8c-0.8-0.7-1.9-1-3.3-1h-11.8v-6.7h12c2.4,0,4.4,0.4,6.1,1.2c1.7,0.8,3,1.9,3.9,3.4
			c0.9,1.5,1.3,3.3,1.3,5.4c0,1.4-0.3,2.7-0.8,3.8s-1.4,2-2.5,2.7c-1.1,0.7-2.4,1.2-3.9,1.4c1.6,0.2,3,0.7,4.2,1.5
			c1.2,0.8,2,1.8,2.6,3c0.6,1.2,0.9,2.7,0.9,4.3v0.1c0,2.1-0.4,3.9-1.3,5.4c-0.9,1.5-2.2,2.7-3.9,3.4c-1.7,0.8-3.7,1.2-6.1,1.2
			h-12.4V164z"/>
	</g>
</g>
</svg>
