<?xml version="1.0" encoding="utf-8"?>
<!-- Generator: Adobe Illustrator 24.0.2, SVG Export Plug-In . SVG Version: 6.00 Build 0)  -->
<svg version="1.1" id="Layer_1" xmlns="http://www.w3.org/2000/svg" xmlns:xlink="http://www.w3.org/1999/xlink" x="0px" y="0px"
	 viewBox="0 0 118 96" style="enable-background:new 0 0 118 96;" xml:space="preserve">
<style type="text/css">
	.st0{fill:#FFFFFF;}
</style>
<path class="st0" d="M108,26.8v34.9h-4v2.7v4c0,0.5-0.3,1-0.8,1.2c-0.2,0.1-0.3,0.1-0.5,0.1c-0.3,0-0.7-0.1-1-0.4L94,61.8h-2.1v-2.7
	h2.7c0.4,0,0.7,0.1,1,0.4l5.8,5.8v-0.8v-5.4h4V29.5H81.1v-2.7H108z M89.2,32.2v2.7h2.7v-2.7H89.2z M94.6,32.2v2.7h2.7v-2.7H94.6z
	 M102.6,32.2h-2.7v2.7h2.7V32.2z M102.6,37.6H81.1v2.7h21.5V37.6z M102.6,43H71.7v2.7h30.9V43z M102.6,48.3H71.7V51h30.9V48.3z
	 M102.6,56.4v-2.7H91.9v2.7H102.6z M84.4,69.1c-0.5,0.5-1.2,0.8-1.9,0.8h-6.7v2.7h6.7c1.4,0,2.8-0.6,3.8-1.6s1.6-2.4,1.6-3.8h-2.7
	C85.2,67.9,84.9,68.6,84.4,69.1z M83,77.1c-0.5,0.5-1.2,0.8-1.9,0.8h-6.7v2.7h6.7c1.4,0,2.8-0.6,3.8-1.6s1.6-2.4,1.6-3.8h-2.7
	C83.8,75.9,83.5,76.6,83,77.1z M81.7,85.2c-0.5,0.5-1.2,0.8-1.9,0.8H54.7l-4-2.7h-3.1V86h2.3l4,2.7h25.9c1.4,0,2.8-0.6,3.8-1.6
	s1.6-2.4,1.6-3.8h-2.7C82.5,84,82.2,84.7,81.7,85.2z M87.6,55.3c1,1,1.6,2.4,1.6,3.8s-0.6,2.8-1.6,3.8s-2.4,1.6-3.8,1.6h-6.7v-2.7
	h6.7c0.7,0,1.4-0.3,1.9-0.8s0.8-1.2,0.8-1.9s-0.3-1.4-0.8-1.9s-1.2-0.8-1.9-0.8H61.9l4.4-16.3v-5.2c0-0.4-0.1-0.7-0.4-1
	c-0.5-0.5-1.4-0.5-1.9,0c-0.3,0.3-0.4,0.6-0.4,1v0.3l-4.4,8.6L48.1,56.4h-3.3v32.3H22V86h9.4V56.4H22v-2.7h21.5h1.3h2.1l10.2-11.5
	l3.8-7.7c0.1-0.9,0.5-1.8,1.2-2.5c1.5-1.5,4.2-1.5,5.7,0c0.8,0.8,1.2,1.8,1.2,2.9v5.7l-3.6,13.1h18.4C85.3,53.7,86.6,54.3,87.6,55.3
	z M42.2,56.4h-8.1V86h8.1C42.2,86,42.2,56.4,42.2,56.4z M39.5,80.6h-2.7v2.7h2.7V80.6z M39.5,75.2h-2.7v2.7h2.7V75.2z M27.4,10.7
	v2.7h2.7v-2.7H27.4z M32.7,10.7v2.7h2.7v-2.7H32.7z M38.1,10.7v2.7h2.7v-2.7H38.1z M27.4,18.8h45.7v-2.7H27.4V18.8z M73.1,21.5H27.4
	v2.7h45.7V21.5z M54.2,26.8H27.4v2.7h26.9L54.2,26.8L54.2,26.8z M27.4,34.9h26.9v-2.7H27.4V34.9z M73.1,10.7H52.9v2.7h20.2
	C73.1,13.4,73.1,10.7,73.1,10.7z M27.4,43v4c0,0.5,0.3,1,0.8,1.2c0.2,0.1,0.3,0.1,0.5,0.1c0.3,0,0.7-0.1,1-0.4l7.7-7.7h16.9v-2.7
	H36.8c-0.4,0-0.7,0.1-1,0.4L30,43.7V43v-5.4h-5.4V8h51.1v29.6h-4v2.7h6.7v-35H22v34.9h5.4V43z"/>
</svg>
