<?xml version="1.0" encoding="utf-8"?>
<!-- Generator: Adobe Illustrator 24.0.2, SVG Export Plug-In . SVG Version: 6.00 Build 0)  -->
<svg version="1.1" id="Layer_1" xmlns="http://www.w3.org/2000/svg" xmlns:xlink="http://www.w3.org/1999/xlink" x="0px" y="0px"
	 viewBox="0 0 100 84.2" style="enable-background:new 0 0 100 84.2;" xml:space="preserve">
<style type="text/css">
	.st0{fill:#FFFFFF;}
</style>
<path class="st0" d="M9.1,79.2H55c1.4,0,2.5-1.1,2.5-2.5s-1.1-2.5-2.5-2.5H9.1c-1.2,0-2.2-1-2.2-2.2V26.5h82.9v13.1
	c0,1.4,1.1,2.5,2.5,2.5s2.5-1.1,2.5-2.5V11.1c0-4-3.2-7.2-7.2-7.2H9.1c-4,0-7.2,3.2-7.2,7.2V72C1.9,76,5.1,79.2,9.1,79.2z M9.1,8.9
	h78.5c1.2,0,2.2,1,2.2,2.2v10.4H6.9V11.1C6.9,9.9,7.9,8.9,9.1,8.9z M20.3,15.2c0-1.7,1.4-3,3-3c1.7,0,3,1.4,3,3c0,1.7-1.4,3-3,3
	C21.6,18.3,20.3,16.9,20.3,15.2z M30.2,15.2c0-1.7,1.4-3,3-3c1.6,0,3,1.4,3,3c0,1.7-1.4,3-3,3S30.2,16.9,30.2,15.2z M10.3,15.2
	c0-1.7,1.4-3,3-3s3,1.4,3,3c0,1.7-1.4,3-3,3S10.3,16.9,10.3,15.2z M97.4,78.4L85.6,66.7c2.8-3.6,4.5-8.1,4.5-13
	c0-11.6-9.4-21.1-21.1-21.1c-11.6,0-21.1,9.4-21.1,21.1S57.3,74.8,69,74.8c4.9,0,9.4-1.7,13-4.5L93.7,82c0.5,0.5,1.1,0.7,1.8,0.7
	s1.3-0.2,1.8-0.7C98.3,81,98.3,79.4,97.4,78.4z M53.1,53.7c0-8.9,7.2-16.1,16.1-16.1s16.1,7.2,16.1,16.1s-7.3,16-16.2,16
	C60.3,69.7,53.1,62.5,53.1,53.7z"/>
</svg>
