<?xml version="1.0" encoding="utf-8"?>
<!-- Generator: Adobe Illustrator 24.0.2, SVG Export Plug-In . SVG Version: 6.00 Build 0)  -->
<svg version="1.1" id="Layer_1" xmlns="http://www.w3.org/2000/svg" xmlns:xlink="http://www.w3.org/1999/xlink" x="0px" y="0px"
	 viewBox="0 0 30 20.2" style="enable-background:new 0 0 30 20.2;" xml:space="preserve">
<style type="text/css">
	.st0{fill:#FFFFFF;}
</style>
<g>
	<g>
		<path class="st0" d="M15,0C5.7,0,0,8.1,0,8.1s5.3,8.1,15,8.1c9.7,0,15-8.1,15-8.1S24.3,0,15,0z M15,14.3c-3.4,0-6.2-2.8-6.2-6.2
			c0-3.4,2.8-6.2,6.2-6.2s6.2,2.8,6.2,6.2C21.2,11.5,18.4,14.3,15,14.3z"/>
	</g>
	<path class="st0" d="M15,3.8c-2.4,0-4.3,1.9-4.3,4.3c0,2.4,1.9,4.3,4.3,4.3s4.3-1.9,4.3-4.3C19.3,5.7,17.4,3.8,15,3.8z M14.4,7.9
		c-0.8,0-1.4-0.6-1.4-1.4c0-0.8,0.6-1.4,1.4-1.4c0.8,0,1.4,0.6,1.4,1.4C15.8,7.3,15.2,7.9,14.4,7.9z"/>
</g>
</svg>
