<?xml version="1.0" encoding="utf-8"?>
<!-- Generator: Adobe Illustrator 24.1.2, SVG Export Plug-In . SVG Version: 6.00 Build 0)  -->
<svg version="1.1" id="Layer_1" xmlns="http://www.w3.org/2000/svg" xmlns:xlink="http://www.w3.org/1999/xlink" x="0px" y="0px"
	 viewBox="0 0 374.4 397.4" style="enable-background:new 0 0 374.4 397.4;" xml:space="preserve">
<style type="text/css">
	.st0{fill-rule:evenodd;clip-rule:evenodd;fill:#F0D3A7;}
	.st1{fill-rule:evenodd;clip-rule:evenodd;fill:#46425B;}
	.st2{fill-rule:evenodd;clip-rule:evenodd;fill:#FFFFFF;}
	.st3{fill-rule:evenodd;clip-rule:evenodd;fill:#748184;}
	.st4{fill-rule:evenodd;clip-rule:evenodd;fill:#E2B472;}
	.st5{fill-rule:evenodd;clip-rule:evenodd;fill:#FAECDA;}
	.st6{fill:#FFFFFF;}
	.st7{fill:#DAE3E9;}
	.st8{fill:#F0524F;}
</style>
<g>
	<path class="st0" d="M335.8,220.3c27.8,21.3,33.1,61.2,11.8,89c-21.3,27.8-56,31-83.9,9.7c-27.8-21.3-31-82.1-9.7-110
		C275.3,181.2,308,198.9,335.8,220.3z"/>
	<path class="st0" d="M41.9,220.3C14,241.6,8.7,281.4,30,309.3c21.3,27.8,56,31,83.9,9.7c27.8-21.3,31-82.1,9.7-110
		C102.3,181.2,69.7,198.9,41.9,220.3z"/>
	<path class="st1" d="M62.3,64.6h251.6c9.5,0,17.3,7.8,17.3,17.3v168.5c0,9.5-7.8,17.3-17.3,17.3H62.3c-9.5,0-17.3-7.8-17.3-17.3
		V81.9C45,72.4,52.8,64.6,62.3,64.6z"/>
	<g>
		<path class="st2" d="M68.6,254.6V77.7c0-0.3,0.2-0.6,0.4-0.6h234.9c0.2,0,0.4,0.3,0.4,0.6v176.9c0,0.3-0.2,0.6-0.4,0.6H69
			C68.8,255.2,68.6,254.9,68.6,254.6z"/>
		<path class="st3" d="M51.7,188.1v-44c0-1.2,1-2.2,2.2-2.2h0c1.2,0,2.2,1,2.2,2.2v44c0,1.2-1,2.2-2.2,2.2h0
			C52.7,190.3,51.7,189.3,51.7,188.1z"/>
		<path class="st3" d="M309.8,166.1c0-4.1,3.3-7.3,7.3-7.3c4,0,7.3,3.3,7.3,7.3c0,4.1-3.3,7.3-7.3,7.3
			C313.1,173.5,309.8,170.2,309.8,166.1z"/>
	</g>
	<polygon class="st0" points="38.1,289.9 23.7,403.5 110.3,403.5 122.7,306.5 	"/>
	<polygon class="st1" points="23.7,335.5 15.3,403.5 118.6,403.5 125.1,350.7 	"/>
	<path class="st4" d="M41.3,256.9c-18,1-20.9,17.7-11.9,34.7c9,17,26.4,27.7,44.4,26.7c18-1,25.3-15.5,16.3-32.5
		C81.1,268.9,59.3,255.9,41.3,256.9z"/>
	<path class="st4" d="M34.6,180c-3.8-0.5-4.5,2.9-4.9,6.7l-10.3,71.1c-0.8,6.6,3.4,17.2,10.1,18l0,0c6.6,0.8,14-3.9,14.8-10.6
		l8-62.9C53.6,191.6,42.7,181,34.6,180z"/>
	<path class="st0" d="M34.6,180c-3.4-0.4-6.5,2-6.9,5.4L17.2,265c-0.7,5.9,3.1,15.2,8.9,15.9l0,0c5.9,0.7,12.5-3.5,13.2-9.4
		l8.3-72.3C48.7,189.7,41.8,180.9,34.6,180z"/>
	<path class="st0" d="M39.6,257.8c-15.7,1.7-21.4,17.8-12.7,35.9c8.7,18.1,28.6,31.3,44.3,29.5c15.7-1.7,21.4-17.8,12.7-35.9
		C75.2,269.3,55.4,256.1,39.6,257.8z"/>
	<path class="st5" d="M29.6,181.7c-1,1-1.7,2.3-1.9,3.7l-2.1,16.2c4.1-0.5,7.1-1.2,11.1-2.7C37.8,192.2,36.5,181.7,29.6,181.7z"/>
	<polygon class="st0" points="339.5,289.9 354,403.5 267.4,403.5 255,306.5 	"/>
	<polygon class="st1" points="354,335.5 362.3,403.5 259,403.5 252.6,350.7 	"/>
	<path class="st4" d="M336.3,256.9c18,1,20.9,17.7,11.9,34.7c-9,17-26.4,27.7-44.4,26.7c-18-1-25.3-15.5-16.3-32.5
		C296.5,268.9,318.4,255.9,336.3,256.9z"/>
	<path class="st4" d="M343.1,180c3.8-0.5,4.5,2.9,4.9,6.7l10.3,71.1c0.8,6.6-3.4,17.2-10.1,18l0,0c-6.6,0.8-14-3.9-14.8-10.6
		l-8-62.9C324.1,191.6,334.9,181,343.1,180z"/>
	<path class="st0" d="M343.1,180c3.4-0.4,6.5,2,6.9,5.4l10.5,79.6c0.7,5.9-3,15.2-8.9,15.9l0,0c-5.9,0.7-12.5-3.5-13.2-9.4
		l-8.3-72.3C328.9,189.7,335.9,180.9,343.1,180z"/>
	<path class="st0" d="M338.1,257.8c15.7,1.7,21.4,17.8,12.7,35.9c-8.7,18.1-28.6,31.3-44.3,29.5c-15.7-1.7-21.4-17.8-12.7-35.9
		C302.5,269.3,322.3,256.1,338.1,257.8z"/>
	<path class="st5" d="M348.1,181.7c1,1,1.7,2.3,1.9,3.7l2.1,16.2c-4.1-0.5-7.1-1.2-11.1-2.7C339.9,192.2,341.1,181.7,348.1,181.7z"
		/>
	<g>
		<rect x="68.6" y="77" class="st6" width="235.8" height="176.3"/>
		<rect x="73.2" y="81.6" class="st7" width="226.6" height="20.6"/>
		<rect x="147.5" y="84.5" class="st6" width="113.2" height="14.9"/>
		<g>
			<rect x="81.6" y="86.7" class="st6" width="11.8" height="2.2"/>
			<rect x="81.6" y="90.9" class="st6" width="11.8" height="2.2"/>
			<rect x="81.6" y="95" class="st6" width="11.8" height="2.2"/>
		</g>
		<rect x="73.2" y="108.4" class="st7" width="140.4" height="83.7"/>
		<rect x="219.6" y="108.4" class="st7" width="39.1" height="29.5"/>
		<path class="st7" d="M175.8,210h-78c-1.9,0-3.4-1.5-3.4-3.4l0,0c0-1.9,1.5-3.4,3.4-3.4h78c1.9,0,3.4,1.5,3.4,3.4l0,0
			C179.1,208.5,177.6,210,175.8,210z"/>
		<path class="st7" d="M296.5,115.8H265c-0.9,0-1.6-0.7-1.6-1.6l0,0c0-0.9,0.7-1.6,1.6-1.6h31.5c0.9,0,1.6,0.7,1.6,1.6l0,0
			C298.1,115.1,297.4,115.8,296.5,115.8z"/>
		<path class="st7" d="M296.5,122.9H265c-0.9,0-1.6-0.7-1.6-1.6l0,0c0-0.9,0.7-1.6,1.6-1.6h31.5c0.9,0,1.6,0.7,1.6,1.6l0,0
			C298.1,122.2,297.4,122.9,296.5,122.9z"/>
		<path class="st7" d="M277.5,129.9H265c-0.9,0-1.6-0.7-1.6-1.6l0,0c0-0.9,0.7-1.6,1.6-1.6h12.4c0.9,0,1.6,0.7,1.6,1.6l0,0
			C279,129.2,278.3,129.9,277.5,129.9z"/>
		<path class="st7" d="M296.5,156.2H265c-0.9,0-1.6-0.7-1.6-1.6l0,0c0-0.9,0.7-1.6,1.6-1.6h31.5c0.9,0,1.6,0.7,1.6,1.6l0,0
			C298.1,155.5,297.4,156.2,296.5,156.2z"/>
		<path class="st7" d="M296.5,163.2H265c-0.9,0-1.6-0.7-1.6-1.6l0,0c0-0.9,0.7-1.6,1.6-1.6h31.5c0.9,0,1.6,0.7,1.6,1.6l0,0
			C298.1,162.5,297.4,163.2,296.5,163.2z"/>
		<path class="st7" d="M277.5,170.3H265c-0.9,0-1.6-0.7-1.6-1.6l0,0c0-0.9,0.7-1.6,1.6-1.6h12.4c0.9,0,1.6,0.7,1.6,1.6l0,0
			C279,169.6,278.3,170.3,277.5,170.3z"/>
		<path class="st7" d="M296.5,194.7H265c-0.9,0-1.6-0.7-1.6-1.6l0,0c0-0.9,0.7-1.6,1.6-1.6h31.5c0.9,0,1.6,0.7,1.6,1.6l0,0
			C298.1,194,297.4,194.7,296.5,194.7z"/>
		<path class="st7" d="M177.5,223.3H96.3c-0.9,0-1.6-0.7-1.6-1.6l0,0c0-0.9,0.7-1.6,1.6-1.6h81.2c0.9,0,1.6,0.7,1.6,1.6l0,0
			C179.1,222.6,178.4,223.3,177.5,223.3z"/>
		<path class="st7" d="M177.5,231.6H96.3c-0.9,0-1.6-0.7-1.6-1.6l0,0c0-0.9,0.7-1.6,1.6-1.6h81.2c0.9,0,1.6,0.7,1.6,1.6l0,0
			C179.1,230.9,178.4,231.6,177.5,231.6z"/>
		<path class="st7" d="M136.9,239.9H96.3c-0.9,0-1.6-0.7-1.6-1.6l0,0c0-0.9,0.7-1.6,1.6-1.6h40.6c0.9,0,1.6,0.7,1.6,1.6l0,0
			C138.5,239.2,137.8,239.9,136.9,239.9z"/>
		<path class="st7" d="M296.5,201.7H265c-0.9,0-1.6-0.7-1.6-1.6l0,0c0-0.9,0.7-1.6,1.6-1.6h31.5c0.9,0,1.6,0.7,1.6,1.6l0,0
			C298.1,201,297.4,201.7,296.5,201.7z"/>
		<path class="st7" d="M277.5,208.8H265c-0.9,0-1.6-0.7-1.6-1.6l0,0c0-0.9,0.7-1.6,1.6-1.6h12.4c0.9,0,1.6,0.7,1.6,1.6l0,0
			C279,208.1,278.3,208.8,277.5,208.8z"/>
		<path class="st7" d="M296.5,233.2H265c-0.9,0-1.6-0.7-1.6-1.6l0,0c0-0.9,0.7-1.6,1.6-1.6h31.5c0.9,0,1.6,0.7,1.6,1.6l0,0
			C298.1,232.4,297.4,233.2,296.5,233.2z"/>
		<path class="st7" d="M296.5,240.2H265c-0.9,0-1.6-0.7-1.6-1.6l0,0c0-0.9,0.7-1.6,1.6-1.6h31.5c0.9,0,1.6,0.7,1.6,1.6l0,0
			C298.1,239.5,297.4,240.2,296.5,240.2z"/>
		<path class="st7" d="M277.5,247.2H265c-0.9,0-1.6-0.7-1.6-1.6l0,0c0-0.9,0.7-1.6,1.6-1.6h12.4c0.9,0,1.6,0.7,1.6,1.6l0,0
			C279,246.5,278.3,247.2,277.5,247.2z"/>
		<rect x="219.6" y="146.9" class="st7" width="39.1" height="29.5"/>
		<rect x="219.6" y="185.4" class="st7" width="39.1" height="29.5"/>
		<rect x="219.6" y="223.9" class="st7" width="39.1" height="29.5"/>
		<path class="st7" d="M87.2,206.6c0,3.9-3.1,7-7,7s-7-3.1-7-7c0-3.9,3.1-7,7-7S87.2,202.8,87.2,206.6z"/>
		<path class="st8" d="M113.9,97.7h-8.2c-3.1,0-5.7-2.6-5.7-5.7l0,0c0-3.1,2.6-5.7,5.7-5.7h8.2c3.1,0,5.7,2.6,5.7,5.7l0,0
			C119.6,95.1,117.1,97.7,113.9,97.7z"/>
		<path class="st7" d="M256.3,96.8c-0.4,0.4-1,0.4-1.4,0l-1.7-1.7c-0.7,0.4-1.5,0.7-2.4,0.7c-2.5,0-4.5-2-4.5-4.5
			c0-2.5,2-4.5,4.5-4.5c2.5,0,4.5,2,4.5,4.5c0,0.9-0.3,1.7-0.7,2.4l1.7,1.7C256.7,95.8,256.7,96.4,256.3,96.8z M250.9,88.1
			c-1.8,0-3.2,1.4-3.2,3.2c0,1.8,1.4,3.2,3.2,3.2c1.8,0,3.2-1.4,3.2-3.2C254.1,89.6,252.7,88.1,250.9,88.1z"/>
		<path class="st6" d="M290.4,90.8l-0.3-0.6c0,0,0.6-1.4,0.6-1.4l-0.8-0.8c-0.1-0.1-1.4,0.6-1.4,0.6l-0.6-0.3c0,0-0.6-1.4-0.6-1.4
			h-1.1c-0.1,0-0.6,1.4-0.6,1.4l-0.6,0.3c0,0-1.4-0.6-1.5-0.5l-0.8,0.8c-0.1,0.1,0.6,1.4,0.6,1.4l-0.3,0.6c0,0-1.4,0.5-1.4,0.6v1.1
			c0,0.1,1.4,0.6,1.4,0.6l0.3,0.6c0,0-0.6,1.4-0.6,1.4l0.8,0.8c0.1,0.1,1.4-0.6,1.4-0.6l0.6,0.3c0,0,0.6,1.4,0.6,1.4h1.1
			c0.1,0,0.6-1.4,0.6-1.4l0.6-0.3c0,0,1.4,0.6,1.5,0.5l0.8-0.8c0.1-0.1-0.6-1.4-0.6-1.4l0.3-0.6c0,0,1.4-0.6,1.4-0.6v-1.1
			C291.9,91.3,290.4,90.8,290.4,90.8z M288.3,92c0,0.9-0.7,1.6-1.7,1.6c-0.9,0-1.7-0.7-1.7-1.6c0-0.9,0.7-1.6,1.7-1.6
			C287.6,90.3,288.3,91.1,288.3,92z"/>
		<g>
			<path class="st7" d="M190.3,205.1h-1.3c-0.2,0-0.5,0.2-0.5,0.5v3.7c0,0.2,0.2,0.5,0.5,0.5h1.3c0.2,0,0.5-0.2,0.5-0.5v-3.7
				C190.7,205.3,190.5,205.1,190.3,205.1z"/>
			<path class="st7" d="M196.4,205.6L196.4,205.6c0.3,0,0.6-0.3,0.6-0.7c0-0.4-0.3-0.7-0.7-0.7H194c0.3-0.4,0.7-1.2,0.7-1.7
				c0-0.9-0.5-1.4-0.8-1.5c-0.3-0.1-0.6,0.1-0.7,0.4c-0.1,0.3,0.1,0.8,0,1c-0.1,0.3-0.6,0.7-1.3,1.6c-0.6,0.8-0.5,1.7-0.5,1.7v1.3
				v1.3v0.6c0,0.2,0.2,0.4,0.4,0.4h4.3c0.3,0,0.5-0.2,0.5-0.5c0-0.3-0.2-0.5-0.5-0.5h0.1c0.3,0,0.6-0.3,0.6-0.6
				c0-0.3-0.3-0.6-0.6-0.6h0.2c0.3,0,0.6-0.3,0.6-0.6C197,205.9,196.7,205.6,196.4,205.6z"/>
		</g>
		<g>
			<path class="st7" d="M208.4,208.1h1.3c0.2,0,0.5-0.2,0.5-0.5v-3.7c0-0.2-0.2-0.5-0.5-0.5h-1.3c-0.2,0-0.5,0.2-0.5,0.5v3.7
				C207.9,207.9,208.1,208.1,208.4,208.1z"/>
			<path class="st7" d="M202.3,207.7L202.3,207.7c-0.3,0-0.6,0.3-0.6,0.7c0,0.4,0.3,0.7,0.7,0.7h2.3c-0.3,0.4-0.7,1.2-0.7,1.7
				c0,0.9,0.5,1.4,0.8,1.5c0.3,0.1,0.6-0.1,0.7-0.4c0.1-0.3-0.1-0.8,0-1c0.1-0.3,0.6-0.7,1.3-1.6c0.6-0.8,0.5-1.7,0.5-1.7v-1.3v-1.3
				v-0.6c0-0.2-0.2-0.4-0.4-0.4h-4.3c-0.3,0-0.5,0.2-0.5,0.5c0,0.3,0.2,0.5,0.5,0.5h-0.1c-0.3,0-0.6,0.3-0.6,0.6
				c0,0.3,0.3,0.6,0.6,0.6h-0.2c-0.3,0-0.6,0.3-0.6,0.6C201.7,207.4,202,207.7,202.3,207.7z"/>
		</g>
		<g>
			<circle class="st8" cx="143.4" cy="150.3" r="30.3"/>
			<polygon class="st6" points="135.4,134.2 135.4,166.4 159.7,150.3 			"/>
		</g>
	</g>
</g>
<g>
	<path class="st8" d="M158.9,25.2c0-0.7-0.1-1.3-0.1-2c-0.2-2.8-0.5-5.9-2.3-8.1c-1.6-1.9-4-2.3-6.3-2.6c-2.9-0.3-5.8-0.5-8.8-0.6
		c-5.9-0.2-11.9-0.1-17.8,0c-3,0.1-6.1,0.1-9.1,0.4c-3.7,0.3-7.6,0.8-9.3,4.6c-1.6,3.3-1.4,7.6-1.4,11.2c0,3.2,0,6.5,0.1,9.7
		c0.2,4.2,0.4,9.6,4.9,11.5c2.4,1,5.3,1.2,7.9,1.4c2.7,0.2,5.5,0.2,8.2,0.2c5.7,0.1,11.5-0.1,17.2-0.2c4-0.1,8.1-0.1,11.9-1.4
		c3.3-1.1,4.1-4.7,4.6-7.8c0.4-3.1,0.3-6.2,0.3-9.3C158.9,29.7,159,27.4,158.9,25.2z"/>
	<path class="st6" d="M140,31.2c-4.8-2.8-9.5-5.6-14.3-8.4c0,5.6,0,11.2,0,16.8C130.5,36.8,135.2,34,140,31.2z"/>
</g>
<g>
	<path class="st8" d="M206.1,22.6c1.6,0,3.1,0,4.7,0c0,8.5,0,16.9,0,25.4c-1.5,0-3,0-4.6,0c0-0.9,0-1.7,0-2.7
		c-0.4,0.4-0.8,0.8-1.1,1.1c-1.1,1-2.3,2-3.9,2c-1.5,0-2.6-0.7-3-2.1c-0.3-1-0.5-2.1-0.5-3.1c-0.1-6.7-0.1-13.5-0.1-20.2
		c0-0.1,0-0.2,0-0.3c1.5,0,3,0,4.6,0c0,0.2,0,0.4,0,0.6c0,6.5,0.1,13,0.1,19.5c0,0.2,0,0.4,0,0.6c0.1,0.8,0.7,1.2,1.4,0.9
		c0.6-0.3,1.1-0.7,1.6-1.1c0.6-0.6,0.8-1.3,0.8-2.2c-0.1-5.8-0.1-11.6-0.1-17.5C206.1,23.2,206.1,23,206.1,22.6z"/>
	<path class="st8" d="M181.5,14.1c-0.8,2.8-1.7,5.5-2.5,8.3c-1.2,3.8-2.3,7.7-3.5,11.5c-0.1,0.3-0.1,0.6-0.1,0.9
		c0,4.2,0,8.4,0.1,12.6c0,0.2,0,0.4,0,0.7c-1.6,0-3.2,0-4.9,0c0-0.2,0-0.4,0-0.6c0-4.2,0-8.4-0.1-12.7c0-0.5-0.2-1-0.3-1.5
		c-1.9-6.2-3.9-12.4-5.8-18.5c-0.1-0.2-0.1-0.4-0.2-0.6c1.7,0,3.3,0,4.9,0c0.1,0,0.4,0.3,0.4,0.5c0.8,2.7,1.5,5.5,2.2,8.2
		c0.4,1.4,0.8,2.9,1.3,4.3c0.2-1,0.5-1.9,0.7-2.9c0.8-3.2,1.6-6.5,2.5-9.7c0.1-0.4,0.2-0.6,0.7-0.5
		C178.4,14.1,179.9,14.1,181.5,14.1z"/>
	<path class="st8" d="M180.7,35.3c0-1.9-0.1-3.9,0-5.8c0-0.9,0.2-1.9,0.5-2.8c0.7-2.3,2.3-3.7,4.7-4.1c2.7-0.4,5.1,0.1,6.7,2.5
		c0.8,1.2,1.2,2.6,1.3,4c0.1,1.2,0.1,2.5,0.1,3.7c0,2.7,0,5.4,0,8.1c0,1-0.1,1.9-0.4,2.8c-0.7,2.8-3.2,4.6-6.1,4.7
		c-2.9,0-5.6-1.8-6.3-4.6c-0.3-1.3-0.4-2.6-0.5-3.9C180.7,38.5,180.7,36.9,180.7,35.3C180.7,35.3,180.7,35.3,180.7,35.3z
		 M189.5,35.6C189.4,35.6,189.4,35.6,189.5,35.6c-0.1-2-0.1-4-0.1-5.9c0-0.5-0.1-1.1-0.2-1.6c-0.3-0.9-1-1.3-1.9-1.3
		c-0.9,0-1.6,0.5-1.8,1.4c-0.1,0.5-0.2,1-0.2,1.5c0,3.9,0,7.8,0.1,11.7c0,0.6,0.1,1.1,0.2,1.7c0.3,0.9,1,1.4,1.9,1.3
		c0.8,0,1.5-0.5,1.8-1.4c0.1-0.5,0.2-1.1,0.2-1.6C189.5,39.4,189.5,37.5,189.5,35.6z"/>
	<path class="st8" d="M247.8,24.8c1-0.7,1.8-1.5,2.8-2c2.5-1.3,5.1-0.1,5.7,2.6c0.3,1.5,0.5,3,0.6,4.5c0.1,3.7,0,7.5,0,11.3
		c0,1.4-0.1,2.8-0.4,4.1c-0.7,3-3.5,4.1-6.1,2.6c-0.9-0.5-1.7-1.3-2.5-1.9c0,0.4,0,0.9,0,1.4c0,1,0.1,0.9-0.9,0.9c-1,0-2,0-3,0
		c-0.7,0-0.8,0-0.8-0.7c0-6,0-11.9,0-17.9c0-4.9,0-9.9,0-14.8c0-0.6,0.2-0.7,0.7-0.7c1.1,0,2.3,0,3.4,0c0.5,0,0.6,0.2,0.6,0.6
		c0,3.1,0,6.3,0,9.4C247.8,24.3,247.8,24.6,247.8,24.8z M247.8,35.4C247.8,35.4,247.8,35.4,247.8,35.4c0,2.3,0,4.6-0.1,6.8
		c0,0.9,0.4,1.4,1.1,1.7c0.2,0.1,0.4,0.2,0.7,0.3c1.1,0.3,1.9-0.1,2.2-1.2c0.2-0.5,0.2-1.1,0.2-1.7c0-4,0-8,0-12
		c0-0.5-0.1-1.1-0.2-1.6c-0.2-0.7-0.7-1.1-1.5-1.1c-0.8,0-1.4,0.3-2,0.7c-0.4,0.2-0.5,0.5-0.5,1C247.8,30.7,247.8,33,247.8,35.4z"/>
	<path class="st8" d="M234.6,45.6c-0.6,0.6-1.1,1.1-1.7,1.6c-0.9,0.8-1.9,1.3-3.1,1.4c-1.9,0.1-3.2-1-3.6-3
		c-0.1-0.9-0.2-1.8-0.2-2.6c0-6.5,0-13,0-19.4c0-0.5,0.1-0.7,0.7-0.7c1.2,0,2.4,0,3.6,0c0.5,0,0.7,0.2,0.7,0.7c0,6.3,0,12.6,0,18.8
		c0,0.3,0,0.7,0,1c0,0.8,0.5,1.1,1.3,1c1.1-0.2,2.4-1.8,2.4-2.9c0-6,0-11.9,0-17.9c0-0.7,0-0.7,0.7-0.7c1.2,0,2.4,0,3.6,0
		c0.4,0,0.6,0.1,0.6,0.6c0,8.1,0,16.2,0,24.4c0,0.4-0.1,0.6-0.5,0.6c-1.3,0-2.6,0-3.8,0c-0.4,0-0.5-0.1-0.5-0.5
		C234.6,47,234.6,46.3,234.6,45.6z"/>
	<path class="st8" d="M269,39.2c1.6,0,3.1,0,4.6,0c0.1,0,0.3,0.2,0.3,0.3c0,1.9,0.1,3.8-0.8,5.5c-1.2,2.2-3,3.3-5.5,3.5
		c-3.2,0.2-5.5-1.2-6.8-3.8c-0.6-1.2-0.8-2.5-0.8-3.9c0-3.7,0-7.5,0.1-11.2c0.1-2.3,0.8-4.3,2.7-5.8c3.1-2.6,9.6-2,10.9,3.9
		c0.2,1,0.3,2,0.3,3c0.1,1.6,0,3.2,0,4.9c0,0.7,0,0.8-0.7,0.8c-2.5,0-5.1,0-7.6,0c-0.2,0-0.4,0-0.7,0c0,0.1-0.1,0.1-0.1,0.2
		c0,1.9,0,3.8,0.1,5.6c0,0.3,0.1,0.7,0.3,1c0.3,0.8,1,1.2,1.9,1.2c0.8,0,1.5-0.5,1.7-1.3c0.2-0.7,0.2-1.4,0.2-2.1
		C269,40.3,269,39.8,269,39.2z M269,32.3c-0.1-1.5-0.1-2.9-0.2-4.3c-0.1-1-0.7-1.4-1.9-1.4c-1.2,0-1.9,0.4-2,1.5
		c-0.1,1.3-0.1,2.6-0.2,3.9c0,0.1,0.2,0.3,0.3,0.3C266.4,32.3,267.6,32.3,269,32.3z"/>
	<path class="st8" d="M216.1,19c-1.2,0-2.4,0-3.5,0c-0.6,0-1.3,0.1-1.6-0.2c-0.3-0.3-0.1-1-0.1-1.6c0-0.9,0-1.7,0-2.6
		c0-0.5,0.2-0.6,0.6-0.6c3.9,0,7.7,0,11.6,0c1.1,0,2.2,0,3.3,0c0.4,0,0.5,0.2,0.5,0.6c0,1.3,0,2.5,0,3.8c0,0.4-0.1,0.6-0.6,0.6
		c-1.3,0-2.7,0-4,0c-0.3,0-0.6,0-1,0c0,0.4,0,0.8,0,1.1c0,9.1,0,18.1,0,27.2c0,0.9,0,0.9-0.9,0.9c-1.2,0-2.3,0-3.5,0
		c-0.8,0-0.8,0-0.8-0.8c0-5.1,0-10.1,0-15.2c0-4.2,0-8.3,0-12.5C216.2,19.5,216.1,19.3,216.1,19z"/>
</g>
<g>
	<ellipse transform="matrix(0.8139 -0.581 0.581 0.8139 -26.902 161.7659)" class="st8" cx="239.1" cy="122.9" rx="9.5" ry="9.5"/>
	<polygon class="st6" points="236.6,117.8 236.6,127.9 244.2,122.9 	"/>
</g>
<g>
	<ellipse transform="matrix(0.8139 -0.581 0.581 0.8139 -49.4277 168.9802)" class="st8" cx="239.1" cy="161.7" rx="9.5" ry="9.5"/>
	<polygon class="st6" points="236.6,156.6 236.6,166.7 244.2,161.7 	"/>
</g>
<g>
	<circle class="st8" cx="239.1" cy="200.9" r="9.5"/>
	<polygon class="st6" points="236.6,195.9 236.6,206 244.2,200.9 	"/>
</g>
<g>
	<ellipse transform="matrix(0.8139 -0.581 0.581 0.8139 -94.139 183.3)" class="st8" cx="239.1" cy="238.6" rx="9.5" ry="9.5"/>
	<polygon class="st6" points="236.6,233.6 236.6,243.7 244.2,238.6 	"/>
</g>
</svg>
